<svg viewBox="0 0 40 40" fill="none" xmlns="http://www.w3.org/2000/svg">
<path d="M5 9C5 7.11438 5 6.17157 5.58579 5.58579C6.17157 5 7.11438 5 9 5H31C32.8856 5 33.8284 5 34.4142 5.58579C35 6.17157 35 7.11438 35 9V31C35 32.8856 35 33.8284 34.4142 34.4142C33.8284 35 32.8856 35 31 35H9C7.11438 35 6.17157 35 5.58579 34.4142C5 33.8284 5 32.8856 5 31V9Z" stroke="white" stroke-width="2"/>
<path fill-rule="evenodd" clip-rule="evenodd" d="M31 16.667H19.9902C19.1727 16.667 18.7639 16.667 18.3964 16.5148C18.0289 16.3625 17.7398 16.0735 17.1618 15.4954L14.5049 12.8386L14.5049 12.8386C13.9268 12.2605 13.6378 11.9715 13.2703 11.8192C12.9027 11.667 12.494 11.667 11.6765 11.667H5V31.0003C5 32.8859 5 33.8288 5.58579 34.4145C6.17157 35.0003 7.11438 35.0003 9 35.0003H31C32.8856 35.0003 33.8284 35.0003 34.4142 34.4145C35 33.8288 35 32.8859 35 31.0003V12.667C35 14.5526 35 15.4954 34.4142 16.0812C33.8284 16.667 32.8856 16.667 31 16.667ZM11.6667 25.667C11.1144 25.667 10.6667 26.1147 10.6667 26.667C10.6667 27.2193 11.1144 27.667 11.6667 27.667H25C25.5523 27.667 26 27.2193 26 26.667C26 26.1147 25.5523 25.667 25 25.667H11.6667Z" fill="white"/>
</svg>
