<svg viewBox="0 0 163 133" fill="none" xmlns="http://www.w3.org/2000/svg">
<g clip-path="url(#clip0_1103_1015)">
<path d="M98.3498 123.061C100.71 124.644 103.398 132.644 103.398 132.644C103.398 132.644 94.9819 133.193 92.6228 131.611C92.0615 131.235 91.5798 130.752 91.2052 130.189C90.8305 129.627 90.5703 128.996 90.4393 128.333C90.3084 127.669 90.3093 126.987 90.442 126.324C90.5747 125.661 90.8366 125.031 91.2127 124.469C91.5889 123.908 92.0719 123.426 92.6341 123.051C93.1964 122.677 93.8269 122.416 94.4897 122.286C95.1525 122.155 95.8345 122.156 96.4968 122.289C97.1592 122.422 97.7888 122.685 98.3498 123.061V123.061Z" fill="#F1F1F1"/>
<path d="M103.492 132.584L103.36 132.689C98.551 126.651 91.2935 124.566 91.2207 124.545L91.2661 124.383C91.3393 124.403 98.6479 126.502 103.492 132.584Z" fill="white"/>
<path d="M110.97 119.87C110.819 123.801 103.351 132.779 103.351 132.779C103.351 132.779 96.5946 123.253 96.7446 119.323C96.8171 117.436 97.6359 115.654 99.0209 114.37C100.406 113.087 102.244 112.406 104.13 112.479C106.017 112.551 107.797 113.371 109.079 114.757C110.362 116.143 111.042 117.982 110.97 119.87V119.87Z" fill="#F1F1F1"/>
<path d="M103.491 132.848L103.271 132.769C106.89 122.715 104.077 112.643 104.048 112.542L104.272 112.478C104.301 112.579 107.136 122.721 103.491 132.848Z" fill="white"/>
<path d="M84.1536 97.4996H20.1468C19.0065 97.4983 17.9132 97.0444 17.1069 96.2374C16.3006 95.4305 15.847 94.3365 15.8457 93.1953V19.9947C15.847 18.8535 16.3006 17.7595 17.1069 16.9525C17.9132 16.1456 19.0065 15.6917 20.1468 15.6904H84.1536C85.2939 15.6917 86.3872 16.1456 87.1935 16.9525C87.9999 17.7595 88.4534 18.8535 88.4547 19.9947V93.1953C88.4534 94.3365 87.9999 95.4305 87.1935 96.2374C86.3872 97.0444 85.2939 97.4983 84.1536 97.4996V97.4996Z" fill="#E6E6E6"/>
<path d="M81.1623 93.9127H23.1373C22.1248 93.9115 21.1541 93.5085 20.4382 92.7921C19.7222 92.0756 19.3195 91.1042 19.3184 90.091V23.1C19.3195 22.0868 19.7222 21.1154 20.4382 20.3989C21.1541 19.6825 22.1248 19.2795 23.1373 19.2783H81.1623C82.1748 19.2795 83.1455 19.6825 83.8614 20.3989C84.5773 21.1154 84.9801 22.0868 84.9812 23.1V90.091C84.9801 91.1042 84.5773 92.0756 83.8614 92.7921C83.1455 93.5085 82.1748 93.9116 81.1623 93.9127V93.9127Z" fill="white"/>
<path d="M78.853 28.8131H49.581C49.4555 28.8132 49.3313 28.7887 49.2153 28.7407C49.0993 28.6928 48.9939 28.6224 48.9051 28.5337C48.8163 28.445 48.7459 28.3396 48.6978 28.2236C48.6497 28.1076 48.625 27.9833 48.625 27.8577C48.625 27.7321 48.6497 27.6078 48.6978 27.4918C48.7459 27.3758 48.8163 27.2704 48.9051 27.1817C48.9939 27.0929 49.0993 27.0226 49.2153 26.9747C49.3313 26.9267 49.4555 26.9022 49.581 26.9023H78.853C78.9784 26.9022 79.1027 26.9267 79.2187 26.9747C79.3347 27.0226 79.4401 27.0929 79.5289 27.1817C79.6177 27.2704 79.6881 27.3758 79.7362 27.4918C79.7842 27.6078 79.809 27.7321 79.809 27.8577C79.809 27.9833 79.7842 28.1076 79.7362 28.2236C79.6881 28.3396 79.6177 28.445 79.5289 28.5337C79.4401 28.6224 79.3347 28.6928 79.2187 28.7407C79.1027 28.7887 78.9784 28.8132 78.853 28.8131V28.8131Z" fill="#E4E4E4"/>
<path d="M78.8536 32.5876H49.5817C49.3285 32.5876 49.0856 32.4869 48.9066 32.3077C48.7275 32.1286 48.627 31.8855 48.627 31.6322C48.627 31.3788 48.7275 31.1358 48.9066 30.9566C49.0856 30.7774 49.3285 30.6768 49.5817 30.6768H78.8536C79.1068 30.6768 79.3496 30.7774 79.5287 30.9566C79.7077 31.1358 79.8083 31.3788 79.8083 31.6322C79.8083 31.8855 79.7077 32.1286 79.5287 32.3077C79.3496 32.4869 79.1068 32.5876 78.8536 32.5876Z" fill="#E4E4E4"/>
<path d="M62.2703 36.3629H49.5817C49.3285 36.3629 49.0856 36.2623 48.9066 36.0831C48.7275 35.9039 48.627 35.6609 48.627 35.4075C48.627 35.1542 48.7275 34.9112 48.9066 34.732C49.0856 34.5528 49.3285 34.4521 49.5817 34.4521H62.2703C62.5235 34.4521 62.7664 34.5528 62.9454 34.732C63.1245 34.9112 63.225 35.1542 63.225 35.4075C63.225 35.6609 63.1245 35.9039 62.9454 36.0831C62.7664 36.2623 62.5235 36.3629 62.2703 36.3629Z" fill="#E4E4E4"/>
<path d="M75.3236 51.6099H29.1123C28.9868 51.6101 28.8625 51.5855 28.7465 51.5376C28.6305 51.4897 28.5251 51.4193 28.4363 51.3306C28.3476 51.2419 28.2771 51.1365 28.2291 51.0205C28.181 50.9045 28.1562 50.7801 28.1562 50.6546C28.1562 50.529 28.181 50.4047 28.2291 50.2887C28.2771 50.1727 28.3476 50.0673 28.4363 49.9786C28.5251 49.8898 28.6305 49.8195 28.7465 49.7716C28.8625 49.7236 28.9868 49.699 29.1123 49.6992H75.3236C75.4491 49.699 75.5733 49.7236 75.6893 49.7716C75.8053 49.8195 75.9107 49.8898 75.9995 49.9786C76.0883 50.0673 76.1587 50.1727 76.2068 50.2887C76.2549 50.4047 76.2796 50.529 76.2796 50.6546C76.2796 50.7801 76.2549 50.9045 76.2068 51.0205C76.1587 51.1365 76.0883 51.2419 75.9995 51.3306C75.9107 51.4193 75.8053 51.4897 75.6893 51.5376C75.5733 51.5855 75.4491 51.6101 75.3236 51.6099Z" fill="#E4E4E4"/>
<path d="M75.3242 55.3854H29.1129C28.8597 55.3854 28.6169 55.2848 28.4378 55.1056C28.2588 54.9264 28.1582 54.6834 28.1582 54.43C28.1582 54.1766 28.2588 53.9336 28.4378 53.7544C28.6169 53.5753 28.8597 53.4746 29.1129 53.4746H75.3242C75.5774 53.4746 75.8202 53.5753 75.9993 53.7544C76.1783 53.9336 76.2789 54.1766 76.2789 54.43C76.2789 54.6834 76.1783 54.9264 75.9993 55.1056C75.8202 55.2848 75.5774 55.3854 75.3242 55.3854V55.3854Z" fill="#E4E4E4"/>
<path d="M75.3242 63.9547H29.1129C28.8597 63.9547 28.6168 63.854 28.4378 63.6748C28.2588 63.4957 28.1582 63.2527 28.1582 62.9993C28.1582 62.7459 28.2588 62.5029 28.4378 62.3238C28.6168 62.1446 28.8597 62.0439 29.1129 62.0439H75.3242C75.5773 62.0439 75.8202 62.1446 75.9992 62.3238C76.1782 62.5029 76.2788 62.7459 76.2788 62.9993C76.2788 63.2527 76.1782 63.4957 75.9992 63.6748C75.8202 63.854 75.5773 63.9547 75.3242 63.9547Z" fill="#E4E4E4"/>
<path d="M75.3242 67.7292H29.1129C28.8597 67.7292 28.6169 67.6285 28.4378 67.4493C28.2588 67.2702 28.1582 67.0271 28.1582 66.7738C28.1582 66.5204 28.2588 66.2774 28.4378 66.0982C28.6169 65.919 28.8597 65.8184 29.1129 65.8184H75.3242C75.5774 65.8184 75.8202 65.919 75.9993 66.0982C76.1783 66.2774 76.2789 66.5204 76.2789 66.7738C76.2789 67.0271 76.1783 67.2702 75.9993 67.4493C75.8202 67.6285 75.5774 67.7292 75.3242 67.7292V67.7292Z" fill="#E4E4E4"/>
<path d="M75.3242 76.2984H29.1129C28.8597 76.2984 28.6168 76.1978 28.4378 76.0186C28.2588 75.8394 28.1582 75.5964 28.1582 75.343C28.1582 75.0897 28.2588 74.8467 28.4378 74.6675C28.6168 74.4883 28.8597 74.3877 29.1129 74.3877H75.3242C75.5773 74.3877 75.8202 74.4883 75.9992 74.6675C76.1782 74.8467 76.2788 75.0897 76.2788 75.343C76.2788 75.5964 76.1782 75.8394 75.9992 76.0186C75.8202 76.1978 75.5773 76.2984 75.3242 76.2984Z" fill="#E4E4E4"/>
<path d="M75.3242 80.0739H29.1129C28.8597 80.0739 28.6169 79.9732 28.4378 79.7941C28.2588 79.6149 28.1582 79.3719 28.1582 79.1185C28.1582 78.8651 28.2588 78.6221 28.4378 78.4429C28.6169 78.2637 28.8597 78.1631 29.1129 78.1631H75.3242C75.5774 78.1631 75.8202 78.2637 75.9993 78.4429C76.1783 78.6221 76.2789 78.8651 76.2789 79.1185C76.2789 79.3719 76.1783 79.6149 75.9993 79.7941C75.8202 79.9732 75.5774 80.0739 75.3242 80.0739Z" fill="#E4E4E4"/>
<path d="M75.3153 90.5309H62.6266C62.3734 90.5309 62.1305 90.4303 61.9515 90.2511C61.7725 90.0719 61.6719 89.8289 61.6719 89.5755C61.6719 89.3221 61.7725 89.0791 61.9515 88.8999C62.1305 88.7208 62.3734 88.6201 62.6266 88.6201H75.3153C75.5685 88.6201 75.8113 88.7208 75.9903 88.8999C76.1694 89.0791 76.27 89.3221 76.27 89.5755C76.27 89.8289 76.1694 90.0719 75.9903 90.2511C75.8113 90.4303 75.5685 90.5309 75.3153 90.5309Z" fill="#0066FF"/>
<path d="M41.4795 31.7439C41.4821 33.7956 40.7881 35.7874 39.5111 37.3925C39.098 37.915 38.6278 38.3895 38.1092 38.8071C36.6938 39.9561 34.9645 40.6502 33.1481 40.7985C32.9008 40.8199 32.6515 40.8296 32.4003 40.8296C31.9026 40.8298 31.4057 40.7887 30.9148 40.7069C30.7415 40.6796 30.5721 40.6465 30.4027 40.6075C30.1078 40.5419 29.8167 40.4606 29.5304 40.364C28.6021 40.0548 27.7302 39.5968 26.9486 39.0078C26.7403 38.8519 26.5398 38.6863 26.3451 38.511C26.1069 38.2996 25.8813 38.0745 25.6694 37.8368C25.6129 37.7744 25.5565 37.7101 25.502 37.6458C24.5519 36.5331 23.8847 35.2071 23.557 33.7807C23.2293 32.3543 23.2508 30.8698 23.6199 29.4536C23.9889 28.0373 24.6944 26.7313 25.6764 25.6466C26.6584 24.562 27.8877 23.7309 29.2597 23.2241C30.6318 22.7173 32.1059 22.5498 33.5566 22.7358C35.0072 22.9218 36.3915 23.4559 37.5915 24.2926C38.7915 25.1292 39.7717 26.2437 40.4487 27.5411C41.1256 28.8384 41.4793 30.2803 41.4795 31.7439L41.4795 31.7439Z" fill="#E4E4E4"/>
<path d="M32.0839 34.8451C34.1387 34.8451 35.8045 33.1781 35.8045 31.1218C35.8045 29.0654 34.1387 27.3984 32.0839 27.3984C30.0291 27.3984 28.3633 29.0654 28.3633 31.1218C28.3633 33.1781 30.0291 34.8451 32.0839 34.8451Z" fill="#9E616A"/>
<path d="M36.2245 29.3069C36.2414 28.9742 36.1476 28.6453 35.9578 28.3716L35.8234 28.1807C35.3386 27.2454 34.5384 26.4036 33.9523 25.7879C33.5123 25.3261 33.0723 25.104 32.6497 25.1254C32.3422 25.1474 32.0559 25.2903 31.8534 25.5229C31.2969 25.4889 30.7427 25.6181 30.2585 25.8946C29.7743 26.1712 29.3813 26.583 29.1275 27.0798C27.346 28.0209 27.8775 30.7994 27.8833 30.8286L28.3137 31.5515L28.3624 31.4599C28.3624 31.458 28.3682 31.4502 28.376 31.4346C28.4597 31.2846 28.9153 30.4506 29.223 29.9226C29.3352 29.7425 29.4846 29.5884 29.661 29.4705C29.9492 29.2735 30.2804 29.1486 30.6268 29.1062L31.573 28.9834L31.2148 29.5212H33.7926L34.7836 29.4043C34.883 29.8115 35.6696 31.3917 35.765 31.5827L35.7727 31.5983L35.8253 31.7054L36.1194 30.8968C36.2911 30.3848 36.3273 29.8371 36.2245 29.3069V29.3069Z" fill="#2F2E41"/>
<path d="M26.9745 39.0278C27.1342 38.8174 27.9617 37.8354 29.8659 37.3151L30.8745 36.1908L34.9185 35.5459L36.9765 36.6838L39.5097 37.3931C39.0966 37.9155 38.6264 38.39 38.1078 38.8077C36.6924 39.9566 34.9631 40.6508 33.1467 40.799C32.8994 40.8204 32.6502 40.8302 32.399 40.8302C31.9013 40.8303 31.4044 40.7892 30.9134 40.7074C30.7401 40.6801 30.5707 40.647 30.4013 40.608C30.1065 40.5424 29.8153 40.4611 29.5291 40.3645C28.6113 40.0593 27.7487 39.608 26.9745 39.0278C26.9648 39.022 26.957 39.0142 26.9473 39.0083L26.9745 39.0278Z" fill="#0066FF"/>
<path d="M103.721 4.55723H0.57774C0.424565 4.55706 0.277712 4.49609 0.169402 4.3877C0.0610906 4.27931 0.000166981 4.13235 0 3.97906V0.578161C0.000166981 0.424875 0.0610906 0.277914 0.169402 0.169524C0.277712 0.0611338 0.424565 0.000167103 0.57774 0H103.721C103.874 0.000167103 104.021 0.0611338 104.129 0.169524C104.238 0.277914 104.299 0.424875 104.299 0.578161V3.97906C104.299 4.13235 104.238 4.27931 104.129 4.3877C104.021 4.49609 103.874 4.55706 103.721 4.55723Z" fill="#0066FF"/>
<path d="M3.35345 2.93368C3.80646 2.93368 4.17369 2.56618 4.17369 2.11284C4.17369 1.6595 3.80646 1.29199 3.35345 1.29199C2.90044 1.29199 2.5332 1.6595 2.5332 2.11284C2.5332 2.56618 2.90044 2.93368 3.35345 2.93368Z" fill="white"/>
<path d="M6.46673 2.93368C6.91974 2.93368 7.28697 2.56618 7.28697 2.11284C7.28697 1.6595 6.91974 1.29199 6.46673 1.29199C6.01372 1.29199 5.64648 1.6595 5.64648 2.11284C5.64648 2.56618 6.01372 2.93368 6.46673 2.93368Z" fill="white"/>
<path d="M9.58001 2.93368C10.033 2.93368 10.4003 2.56618 10.4003 2.11284C10.4003 1.6595 10.033 1.29199 9.58001 1.29199C9.127 1.29199 8.75977 1.6595 8.75977 2.11284C8.75977 2.56618 9.127 2.93368 9.58001 2.93368Z" fill="white"/>
<path d="M100.671 1.54814H97.0856C97.0155 1.54754 96.9486 1.51927 96.8992 1.4695C96.8499 1.41972 96.8223 1.35247 96.8223 1.28237C96.8223 1.21228 96.8499 1.14503 96.8992 1.09525C96.9486 1.04548 97.0155 1.01721 97.0856 1.01661H100.671C100.706 1.01631 100.741 1.02296 100.773 1.03618C100.806 1.04941 100.835 1.06893 100.86 1.09364C100.885 1.11835 100.905 1.14775 100.918 1.18014C100.932 1.21253 100.939 1.24728 100.939 1.28237C100.939 1.31747 100.932 1.35221 100.918 1.38461C100.905 1.417 100.885 1.4464 100.86 1.47111C100.835 1.49581 100.806 1.51534 100.773 1.52856C100.741 1.54178 100.706 1.54844 100.671 1.54814V1.54814Z" fill="white"/>
<path d="M100.671 2.54423H97.0859C97.0154 2.54423 96.9479 2.51623 96.8981 2.46639C96.8483 2.41655 96.8203 2.34895 96.8203 2.27847C96.8203 2.20798 96.8483 2.14038 96.8981 2.09054C96.9479 2.0407 97.0154 2.01271 97.0859 2.01271H100.671C100.706 2.0124 100.741 2.01906 100.773 2.03228C100.806 2.0455 100.835 2.06503 100.86 2.08973C100.885 2.11444 100.905 2.14384 100.918 2.17624C100.932 2.20863 100.939 2.24337 100.939 2.27847C100.939 2.31356 100.932 2.34831 100.918 2.3807C100.905 2.41309 100.885 2.44249 100.86 2.4672C100.835 2.49191 100.806 2.51144 100.773 2.52466C100.741 2.53788 100.706 2.54453 100.671 2.54423V2.54423Z" fill="white"/>
<path d="M100.671 3.54129H97.0857C97.0156 3.54072 96.9486 3.51247 96.8993 3.46269C96.85 3.41292 96.8223 3.34564 96.8223 3.27553C96.8223 3.20542 96.85 3.13814 96.8993 3.08837C96.9486 3.03859 97.0156 3.01034 97.0857 3.00977H100.671C100.741 3.01034 100.808 3.03859 100.857 3.08837C100.907 3.13814 100.934 3.20542 100.934 3.27553C100.934 3.34564 100.907 3.41292 100.857 3.46269C100.808 3.51247 100.741 3.54072 100.671 3.54129V3.54129Z" fill="white"/>
<path d="M128.987 91.4557C128.822 91.2761 128.699 91.0624 128.625 90.8297C128.552 90.5971 128.53 90.3511 128.562 90.1092C128.593 89.8672 128.678 89.6352 128.809 89.4294C128.94 89.2236 129.114 89.0491 129.32 88.9181L127.953 83.1465L130.846 84.2042L131.701 89.5228C131.898 89.8833 131.956 90.3035 131.864 90.7039C131.772 91.1043 131.536 91.4571 131.202 91.6953C130.868 91.9336 130.457 92.0408 130.049 91.9966C129.641 91.9525 129.263 91.76 128.987 91.4557V91.4557Z" fill="#9E616A"/>
<path d="M122.031 67.2705L123.192 70.2582C123.192 70.2582 122.695 73.246 123.524 73.9099C124.353 74.5739 124.022 74.5738 124.022 75.0718C124.05 75.429 124.154 75.7762 124.325 76.0907C124.496 76.4053 124.732 76.6802 125.017 76.8977C125.68 77.3956 128.666 87.5207 128.666 87.5207H131.651C131.555 86.7491 131.555 85.9685 131.651 85.1969C131.817 84.035 131.154 81.0473 130.822 80.5493C130.49 80.0514 130.822 79.3874 130.822 78.3915C130.822 77.3956 130.159 76.8977 130.159 75.2378C130.159 73.5779 128.168 60.6311 128.334 59.1372C128.5 57.6433 126.675 56.3154 126.675 56.3154H125.017L122.031 67.2705Z" fill="#E4E4E4"/>
<path d="M129.666 130.396H127.46L126.41 121.879L129.667 121.879L129.666 130.396Z" fill="#9E616A"/>
<path d="M130.228 132.537L123.113 132.536V132.446C123.113 131.711 123.405 131.007 123.924 130.487C124.444 129.967 125.148 129.675 125.883 129.675H125.883L127.182 128.688L129.607 129.675L130.228 129.675L130.228 132.537Z" fill="#2F2E41"/>
<path d="M109.48 130.333L107.408 129.574L109.346 121.215L112.405 122.335L109.48 130.333Z" fill="#9E616A"/>
<path d="M109.273 132.537L102.592 130.091L102.623 130.006C102.875 129.316 103.391 128.754 104.057 128.445C104.723 128.135 105.485 128.103 106.175 128.356L106.175 128.356L107.734 127.876L109.673 129.636L110.256 129.85L109.273 132.537Z" fill="#2F2E41"/>
<path d="M124.805 90.5693C124.805 90.5693 123.313 97.8726 125.801 97.2087C128.289 96.5448 127.293 90.2373 127.293 90.2373L124.805 90.5693Z" fill="#A0616A"/>
<path d="M113.858 84.5107C113.858 84.5107 111.868 87.1665 111.868 88.6604C111.868 90.1542 111.204 103.433 111.204 103.433C111.204 103.433 106.168 123.207 107.163 124.203C108.159 125.199 111.642 126.195 112.139 125.697C112.637 125.199 117.009 104.761 117.009 104.761L121.156 93.6399L124.971 109.575L125.303 126.505C125.303 126.505 129.449 127.501 130.279 126.837C131.108 126.173 131.274 110.073 130.279 104.429C129.283 98.7855 130.444 85.8386 130.444 85.8386L113.858 84.5107Z" fill="#2F2E41"/>
<path d="M120.509 49.0734C123.257 49.0734 125.485 46.844 125.485 44.0938C125.485 41.3437 123.257 39.1143 120.509 39.1143C117.761 39.1143 115.533 41.3437 115.533 44.0938C115.533 46.844 117.761 49.0734 120.509 49.0734Z" fill="#9E616A"/>
<path d="M114.188 56.2936C114.188 56.2936 115.621 54.1573 118.441 51.3356C119.934 50.8376 122.52 51.1278 123.417 51.3356C127.563 56.8131 127.824 56.4491 128.904 59.5096C129.184 60.3032 129.323 61.0657 129.199 61.6881C128.702 64.1779 130.277 84.3452 130.443 85.0091C130.609 85.6731 131.77 86.503 130.609 86.503C129.448 86.503 111.866 85.839 112.198 85.3411C112.53 84.8431 114.188 56.2936 114.188 56.2936Z" fill="#E4E4E4"/>
<path opacity="0.1" d="M113.43 85.1218L118.419 74.1367L115.924 85.8196L113.43 85.1218Z" fill="black"/>
<path d="M119.005 48.7071C119.471 48.3601 119.9 47.9661 120.285 47.5313C120.672 47.0926 120.914 46.5452 120.978 45.9637C121.007 45.6738 120.961 45.3814 120.846 45.1138C120.731 44.8462 120.55 44.6121 120.321 44.4333C119.847 44.0982 119.124 44.1177 118.731 44.5446C118.921 43.9298 119.094 43.2046 118.709 42.6891C118.359 42.2199 117.705 42.1402 117.141 41.9855C116.052 41.6822 115.116 40.9839 114.514 40.0268L115.472 40.2253L115.365 39.5414L116.16 39.8178L116.167 38.8653L116.987 39.3244C117.99 38.4035 119.313 37.9103 120.674 37.9494C121.361 37.9609 122.033 38.1456 122.63 38.4866C123.227 38.8324 123.679 39.3826 123.904 40.0359C124.326 39.5975 125.078 39.6314 125.581 39.974C126.083 40.3166 126.379 40.8897 126.582 41.4636C126.983 42.5641 127.077 43.7535 126.852 44.9033C126.621 46.0558 126 47.0935 125.094 47.8423C124.263 48.4775 123.273 48.8716 122.232 48.9816C121.196 49.0891 120.15 49.0444 119.127 48.8488" fill="#2F2E41"/>
<path d="M111.876 91.4342C112.041 91.2546 112.165 91.0409 112.238 90.8082C112.312 90.5756 112.333 90.3297 112.302 90.0877C112.27 89.8458 112.186 89.6137 112.055 89.4079C111.924 89.2021 111.749 89.0276 111.543 88.8966L112.91 83.125L110.017 84.1827L109.163 89.5014C108.966 89.8618 108.908 90.282 109 90.6824C109.092 91.0828 109.327 91.4356 109.661 91.6738C109.996 91.9121 110.406 92.0193 110.814 91.9751C111.222 91.931 111.6 91.7385 111.876 91.4342V91.4342Z" fill="#9E616A"/>
<path d="M115.848 56.2939H114.19C114.19 56.2939 112.365 57.6218 112.531 59.1157C112.697 60.6096 110.706 73.5564 110.706 75.2163C110.706 76.8762 110.043 77.3741 110.043 78.37C110.043 79.3659 110.375 80.0299 110.043 80.5279C109.711 81.0258 109.048 84.0135 109.214 85.1754C109.31 85.947 109.31 86.7277 109.214 87.4992H112.199C112.199 87.4992 115.185 77.3741 115.848 76.8762C116.133 76.6587 116.369 76.3838 116.54 76.0692C116.711 75.7547 116.815 75.4075 116.843 75.0503C116.843 74.5524 116.512 74.5524 117.341 73.8884C118.17 73.2245 117.673 70.2367 117.673 70.2367L118.834 67.249L115.848 56.2939Z" fill="#E4E4E4"/>
<path d="M162.768 133H71.7833C71.7528 133 71.7226 132.994 71.6944 132.983C71.6662 132.971 71.6405 132.954 71.6189 132.932C71.5973 132.911 71.5802 132.885 71.5685 132.857C71.5568 132.829 71.5508 132.799 71.5508 132.768C71.5508 132.738 71.5568 132.707 71.5685 132.679C71.5802 132.651 71.5973 132.625 71.6189 132.604C71.6405 132.582 71.6662 132.565 71.6944 132.554C71.7226 132.542 71.7528 132.536 71.7833 132.536H162.768C162.798 132.536 162.829 132.542 162.857 132.554C162.885 132.565 162.911 132.582 162.932 132.604C162.954 132.625 162.971 132.651 162.983 132.679C162.994 132.707 163 132.738 163 132.768C163 132.799 162.994 132.829 162.983 132.857C162.971 132.885 162.954 132.911 162.932 132.932C162.911 132.954 162.885 132.971 162.857 132.983C162.829 132.994 162.798 133 162.768 133V133Z" fill="#CACACA"/>
</g>
<defs>
<clipPath id="clip0_1103_1015">
<rect width="163" height="133" fill="white"/>
</clipPath>
</defs>
</svg>
