<svg viewBox="0 0 147 146" fill="none" xmlns="http://www.w3.org/2000/svg">
<g clip-path="url(#clip0_1103_953)">
<path d="M145.741 72.9998C145.751 81.3077 144.341 89.556 141.575 97.388C141.573 97.3932 141.571 97.3966 141.57 97.4018C141.558 97.4383 141.545 97.4712 141.532 97.5076V97.5094C140.941 99.1705 140.293 100.804 139.586 102.41C137.803 106.459 135.656 110.337 133.171 113.996C132.569 114.887 131.945 115.764 131.3 116.626C130.591 117.58 129.858 118.515 129.104 119.43C128.408 120.275 127.694 121.103 126.961 121.915C126.09 122.882 125.194 123.825 124.271 124.743C122.1 126.909 119.794 128.936 117.368 130.812C116.943 131.143 116.512 131.468 116.077 131.788C115.064 132.537 114.032 133.26 112.979 133.956C110.663 135.489 108.26 136.888 105.783 138.145C105.356 138.363 104.925 138.578 104.492 138.786C102.818 139.596 101.111 140.341 99.3688 141.021C98.872 141.217 98.3735 141.406 97.8698 141.588C97.785 141.621 97.7002 141.653 97.6136 141.682C91.6409 143.842 85.4104 145.205 79.0827 145.736C78.6431 145.776 78.2029 145.809 77.7621 145.837C77.2947 145.87 76.8268 145.896 76.3583 145.916C75.9879 145.935 75.6192 145.949 75.2471 145.96C75.1709 145.963 75.093 145.967 75.0169 145.967C74.5166 145.982 74.0147 145.992 73.511 145.996C73.2981 145.998 73.0852 146 72.8706 146C72.7702 146 72.6698 146 72.5694 145.998C71.1172 145.993 69.6759 145.945 68.2456 145.856C68.2162 145.854 68.1868 145.85 68.1573 145.85C67.645 145.816 67.1344 145.779 66.6255 145.734C64.8133 145.582 63.0206 145.362 61.2476 145.075C60.8391 145.011 60.4318 144.942 60.0256 144.867C58.2618 144.555 56.5211 144.179 54.8035 143.739C54.2929 143.608 53.7852 143.473 53.2803 143.331C50.3666 142.519 47.5067 141.524 44.7176 140.352C43.1165 139.679 41.5455 138.952 40.0044 138.171C39.3103 137.819 38.6231 137.456 37.9429 137.082C37.7577 136.981 37.5742 136.879 37.3907 136.777C36.051 136.028 34.739 135.238 33.4547 134.408C32.4023 133.73 31.3696 133.025 30.3564 132.293C30.2318 132.206 30.1089 132.116 29.986 132.026C29.2088 131.459 28.4444 130.877 27.6926 130.281C26.0569 128.982 24.4795 127.618 22.9603 126.187C21.9097 125.199 20.8896 124.179 19.9001 123.129C14.1346 117.021 9.46377 109.962 6.09278 102.264C5.37619 100.625 4.71845 98.9566 4.11956 97.2579C4.11762 97.2542 4.11644 97.25 4.1161 97.2458C1.38302 89.4557 -0.00881225 81.257 4.19799e-05 72.9998C4.19799e-05 42.3503 18.8564 16.112 45.5813 5.29206C55.1056 1.45243 65.3307 -0.333338 75.5901 0.0511749C85.8494 0.435688 95.9128 2.98185 105.124 7.52367C129.19 19.4412 145.741 44.2854 145.741 72.9998Z" fill="#F2F2F2"/>
<path d="M105.125 7.52367V99.7722H45.582V5.29206C55.1063 1.45243 65.3314 -0.333338 75.5908 0.0511749C85.8501 0.435688 95.9135 2.98185 105.125 7.52367V7.52367Z" fill="white"/>
<path d="M59.9108 49.5912C61.5261 46.915 63.4401 44.0576 66.4375 43.1837C69.9088 42.1717 73.4747 44.1821 76.4994 46.1659C85.545 52.0988 94.2561 58.5284 102.593 65.4252L102.584 65.5291C96.0932 65.0807 89.6028 64.6324 83.1124 64.184C78.4231 63.86 73.5727 63.4914 69.4286 61.2691C67.8561 60.4258 66.3232 59.2994 64.5413 59.2209C62.3274 59.1234 60.397 60.6723 58.88 62.2906C49.9064 71.8632 47.3096 86.5019 37.2422 94.9122C43.5904 79.2286 51.1704 64.0741 59.9108 49.5912V49.5912Z" fill="#F2F2F2"/>
<path d="M109.479 9.87646C109.329 9.77589 109.176 9.68052 109.026 9.58342C104.673 6.79447 100.007 4.52877 95.1249 2.8331L93.9929 18.4769H86.8167V0.549476C86.3649 0.455842 85.9097 0.36741 85.4544 0.28418V18.4769H76.9263C72.2315 18.4769 67.729 16.6086 64.4092 13.283C61.0895 9.95735 59.2245 5.44684 59.2245 0.7437V0.743683C58.7675 0.842519 58.3141 0.94829 57.8606 1.061V18.4769H50.9145L49.8362 3.55964C44.8191 5.48716 40.0561 8.02194 35.6532 11.1076C35.5771 11.1596 35.5009 11.2133 35.4265 11.2654C35.044 11.5341 34.6666 11.8081 34.291 12.0855V99.1634H54.7623L54.4005 94.1435L52.41 39.1856H92.4957L90.5052 94.1435L90.1434 99.1634H110.388V10.4799C110.087 10.2753 109.784 10.0741 109.479 9.87646ZM57.8606 34.634H52.0811L51.0132 19.8433H57.8606V34.634ZM85.4544 34.634H75.7476V34.3409C75.7476 34.2001 75.7199 34.0606 75.666 33.9304C75.6122 33.8003 75.5332 33.6821 75.4337 33.5826C75.3342 33.483 75.2161 33.4041 75.0861 33.3504C74.9561 33.2966 74.8168 33.2691 74.6762 33.2693H70.4563C70.3158 33.2693 70.1767 33.297 70.0468 33.3508C69.917 33.4046 69.7991 33.4836 69.6998 33.5831C69.6004 33.6826 69.5216 33.8007 69.4679 33.9308C69.4142 34.0608 69.3865 34.2002 69.3866 34.3409V34.634H59.2245V19.8433H85.4544V34.634ZM86.8167 34.634V19.8433H93.8943L92.8263 34.634H86.8167Z" fill="#3F3D56"/>
<path d="M141.576 97.3873C141.574 97.3925 141.572 97.396 141.571 97.4012C141.559 97.4376 141.547 97.4705 141.533 97.5069V97.5087C140.942 99.1698 140.294 100.803 139.587 102.409L6.09387 102.263C5.37728 100.625 4.71954 98.956 4.12065 97.2572C4.11871 97.2535 4.11753 97.2493 4.11719 97.2451L141.576 97.3873Z" fill="#3F3D56"/>
<path d="M91.6873 97.958H68.3203V101.079H91.6873V97.958Z" fill="white"/>
<path d="M37.3884 128.523C37.4715 127.789 37.5863 127.06 37.7328 126.336C38.5338 122.409 40.2529 118.729 42.7489 115.596C44.1769 115.676 45.4284 115.457 45.5478 112.687C45.5703 112.194 45.9355 111.766 46.0151 111.28C45.8801 111.299 45.7399 111.31 45.6049 111.318C45.5616 111.32 45.5166 111.324 45.4751 111.325H45.4595C45.3096 111.332 45.1609 111.296 45.0313 111.22C44.9018 111.144 44.7969 111.032 44.7293 110.898C44.6618 110.764 44.6345 110.613 44.6507 110.464C44.667 110.314 44.726 110.173 44.8208 110.056C44.8797 109.985 44.9385 109.912 44.9974 109.839C45.0856 109.727 45.1774 109.617 45.2674 109.506C45.2778 109.494 45.2864 109.484 45.2968 109.472C45.3989 109.345 45.5011 109.219 45.6049 109.092C45.4173 108.8 45.165 108.556 44.8676 108.378C43.8377 107.772 42.4166 108.192 41.6723 109.125C40.9263 110.058 40.7844 111.369 41.044 112.534C41.2656 113.533 41.7485 114.448 42.2903 115.319C42.2349 115.39 42.176 115.459 42.1206 115.532C41.0998 116.847 40.2099 118.26 39.4637 119.749C39.6749 118.096 37.0941 112.132 36.0954 110.868C34.8959 109.35 32.438 110.013 32.2269 111.937C32.2251 111.955 32.2217 111.974 32.2199 111.993C32.3688 112.076 32.5142 112.165 32.6561 112.26C32.8344 112.379 32.9726 112.55 33.0525 112.749C33.1324 112.949 33.1503 113.167 33.1039 113.377C33.0575 113.587 32.9489 113.778 32.7924 113.925C32.6359 114.071 32.4388 114.168 32.2269 114.2L32.2044 114.204C30.2208 117.042 36.5818 124.431 38.1759 122.773C37.7751 123.901 37.4553 125.057 37.2187 126.23C37.0065 127.266 36.8585 128.313 36.7756 129.367C36.6747 130.694 36.681 132.028 36.7947 133.354C36.7915 133.338 36.7892 133.323 36.7878 133.307C36.4329 130.418 30.3627 126.123 28.5903 126.48C27.569 126.687 26.5634 126.64 26.7192 127.671C26.7209 127.689 26.7244 127.704 26.7261 127.722C27.0013 127.833 27.269 127.962 27.5275 128.108C27.6763 128.192 27.8217 128.282 27.9637 128.375C28.1306 128.487 28.2626 128.644 28.3444 128.828C28.4263 129.012 28.4546 129.215 28.4262 129.414C28.3978 129.613 28.3138 129.8 28.1839 129.954C28.054 130.107 27.8835 130.22 27.6919 130.281C28.4449 130.876 29.2094 131.457 29.9854 132.025C30.1083 132.116 30.2311 132.206 30.3558 132.292C31.3683 133.024 32.4011 133.729 33.4541 134.408C34.7384 135.237 36.0504 136.026 37.3901 136.776C37.5736 136.879 37.7571 136.981 37.9423 137.082C37.4766 135.162 37.2407 133.194 37.2395 131.219C37.2391 130.318 37.2888 129.418 37.3884 128.523V128.523ZM38.3352 122.327L38.3386 122.322C38.3386 122.325 38.3373 122.328 38.3352 122.331V122.327ZM36.9557 134.796L36.902 134.677C36.9037 134.588 36.9037 134.501 36.902 134.411C36.902 134.387 36.8968 134.363 36.8968 134.339C36.9176 134.493 36.9349 134.647 36.9574 134.801L36.9557 134.796ZM44.9056 135.032C44.9247 134.952 44.9403 134.897 44.9593 134.817C44.9524 134.8 44.9454 134.782 44.9385 134.767C44.3621 133.392 41.3192 136.164 40.0038 138.171C41.5442 138.951 43.1153 139.678 44.717 140.352C44.8243 140.217 44.9351 140.083 45.0441 139.948C45.0545 139.936 45.0631 139.925 45.0718 139.913C45.3072 139.622 45.5443 139.334 45.778 139.043C45.7797 138.986 45.7797 138.928 45.7797 138.873C45.7774 138.038 45.6751 137.206 45.4751 136.395C45.3143 136.402 45.1551 136.36 45.0191 136.274C44.8831 136.188 44.7769 136.062 44.7147 135.913C44.6526 135.764 44.6375 135.6 44.6717 135.442C44.7058 135.285 44.7875 135.142 44.9056 135.032V135.032Z" fill="white"/>
<path d="M82.3494 98.9443C82.765 99.2314 83.2384 99.4238 83.7362 99.5079C84.2341 99.5919 84.7443 99.5656 85.2309 99.4308C85.7175 99.2959 86.1687 99.0558 86.5526 98.7274C86.9366 98.399 87.244 97.9903 87.4532 97.5299L99.6724 98.6749L96.6725 93.0371L85.5289 92.8141C84.7337 92.5133 83.856 92.5152 83.062 92.8193C82.2681 93.1235 81.6131 93.7088 81.2212 94.4644C80.8293 95.22 80.7276 96.0934 80.9356 96.9191C81.1435 97.7447 81.6466 98.4653 82.3494 98.9442V98.9443Z" fill="#FFB6B6"/>
<path d="M94.7383 98.558L111.647 100.457L111.706 100.382C111.817 100.24 122.881 86.0518 124.74 82.6745C125.884 80.6453 126.3 78.2854 125.921 75.9864L125.908 75.9302L125.864 75.8929C124.963 75.1361 123.831 74.7097 122.655 74.6839C121.479 74.658 120.33 75.0344 119.396 75.7508C114.907 79.2339 111.287 83.7147 108.822 88.8394L107.424 91.756L94.7383 93.0093V98.558Z" fill="#0066FF"/>
<path d="M81.0205 138.238L77.763 145.837C77.2957 145.87 76.8277 145.896 76.3592 145.916C75.9888 145.936 75.6202 145.949 75.248 145.96L75.1216 146L75.0178 145.967C74.5176 145.982 74.0156 145.992 73.5119 145.996C73.299 145.998 73.0861 146 72.8715 146C72.7711 146 72.6707 146 72.5703 145.998L72.7867 145.256L73.0411 144.377L74.052 140.895L75.5111 135.868L77.6816 136.801L81.0205 138.238Z" fill="#FFB6B6"/>
<path d="M104.493 138.786C102.819 139.596 101.111 140.341 99.3692 141.021L97.666 138.152L103.156 135.736L104.493 138.786Z" fill="#FFB6B6"/>
<path d="M116.077 125.744V131.789C115.064 132.538 114.031 133.26 112.979 133.956V125.744H116.077Z" fill="#CACACA"/>
<path d="M126.96 121.915C126.09 122.883 125.193 123.825 124.271 124.743C122.099 126.909 119.794 128.936 117.368 130.812H103.555C103.189 130.812 102.826 130.734 102.492 130.582C102.158 130.43 101.86 130.209 101.619 129.933L101.617 129.928C101.329 129.602 101.129 129.208 101.035 128.783L101.033 128.78C100.994 128.597 100.975 128.411 100.975 128.225V124.502C100.975 123.816 101.247 123.159 101.731 122.674C102.215 122.189 102.871 121.916 103.555 121.915H126.96Z" fill="#3F3D56"/>
<path d="M132.652 107.384L131.155 113.81C131.301 114.741 131.35 115.685 131.3 116.626C130.59 117.58 129.858 118.515 129.103 119.43C128.408 120.275 127.693 121.103 126.961 121.915C126.09 122.882 125.193 123.825 124.271 124.743C121.868 125.499 119.037 125.808 116.077 125.828C115.056 125.837 114.019 125.809 112.979 125.754C108.76 125.532 104.494 124.854 100.999 124.15C100.075 123.966 99.2058 123.779 98.4061 123.597C96.8916 123.255 95.6246 122.936 94.7072 122.693C93.6739 122.423 93.0853 122.248 93.0853 122.248L89.1545 128.842L85.5854 134.828L80.9864 140.708C80.5468 140.747 80.1065 140.781 79.6658 140.808C79.1984 140.841 78.7305 140.868 78.262 140.888C77.8916 140.907 77.5229 140.921 77.1508 140.931L77.0244 140.971L76.9205 140.938L75.252 140.406L74.6894 140.227L72.666 139.582C72.666 139.582 73.1178 138.157 73.9088 135.78C74.1996 134.907 76.2594 128.459 78.4143 122.829C79.053 121.157 79.7142 119.461 80.3944 117.774C80.9518 116.389 81.5195 115.009 82.0942 113.647C83.0929 111.287 87.9186 110.015 93.6011 109.347C93.8902 109.314 94.181 109.281 94.4735 109.25C97.3693 108.945 100.442 108.787 103.315 108.714C104.753 108.678 106.141 108.664 107.433 108.662C107.85 108.662 108.255 108.663 108.65 108.666H108.651C109.716 108.671 110.695 108.686 111.557 108.704C111.725 108.707 111.888 108.712 112.047 108.716H112.049C112.156 108.718 112.262 108.721 112.366 108.723C114.251 108.771 115.407 108.83 115.407 108.83L115.855 105.307L115.947 104.596L116.033 103.92V103.918L116.044 103.833L116.115 103.831L117.361 103.807L127.836 103.603L132.298 103.413L132.652 107.384Z" fill="#2F2E41"/>
<path d="M104.226 135.891C103.799 136.11 103.368 136.325 102.935 136.533C101.261 137.343 99.5535 138.088 97.8117 138.768C97.3149 138.964 96.8164 139.153 96.3127 139.335C96.2573 139.257 96.2002 139.179 96.1431 139.101C93.7406 135.798 92.2451 133.693 89.1555 128.843C87.8625 126.814 86.5626 124.699 85.3008 122.538L94.4364 118.266L95.4611 117.787L98.4071 123.598L101.035 128.78L101.62 129.934L104.226 135.891Z" fill="#2F2E41"/>
<path d="M119.045 65.9001C123.694 65.9001 127.462 62.1252 127.462 57.4686C127.462 52.812 123.694 49.0371 119.045 49.0371C114.397 49.0371 110.629 52.812 110.629 57.4686C110.629 62.1252 114.397 65.9001 119.045 65.9001Z" fill="#FFB6B6"/>
<path d="M134.068 83.6765C133.999 76.7129 134.203 78.7295 133.652 76.3315C132.174 69.8846 126.038 68.709 124.968 68.5633C124.855 68.2594 124.679 67.9823 124.454 67.7492C124.229 67.516 123.958 67.3318 123.658 67.208C123.359 67.0843 123.037 67.0236 122.713 67.0297C122.389 67.0359 122.07 67.1087 121.775 67.2438L119.727 68.3076C117.742 69.218 118.947 70.5331 118.261 72.6086L117.541 74.8108L111.641 91.1499L112.835 97.3662L112.837 97.3696L113.642 101.557L116.028 104.281L115.983 103.846L115.93 103.929L115.928 103.931L115.79 104.137C115.982 104.243 116.172 104.347 116.359 104.451C116.844 104.718 117.316 104.98 117.777 105.237C117.887 105.299 117.996 105.36 118.106 105.422H118.107C118.176 105.46 118.246 105.498 118.313 105.537C120.041 106.504 113.647 108.266 115.068 109.093C115.265 109.207 115.461 109.322 115.653 109.435C122.196 113.268 127.416 118.044 129.104 119.431C129.858 118.515 130.59 117.581 131.3 116.627C131.944 115.765 132.568 114.888 133.171 113.997C133.277 113.3 133.348 112.602 133.417 111.919C133.5 111.097 133.067 103.484 133.213 102.646C133.277 102.275 133.031 101.923 132.794 101.583C132.574 101.266 132.366 100.968 132.41 100.687C132.455 100.397 132.773 100.082 133.083 99.7746C133.42 99.4382 133.77 99.0914 133.82 98.7256C133.959 97.706 133.389 96.683 133.497 95.6565C133.673 93.9867 133.809 92.3117 133.903 90.6314C134.037 88.3114 134.091 85.9931 134.068 83.6765Z" fill="#0066FF"/>
<path d="M86.5957 100.754C86.9432 100.387 87.3668 100.101 87.8366 99.9155C88.3064 99.7303 88.8111 99.6506 89.315 99.6819C89.8189 99.7132 90.3098 99.8549 90.7532 100.097C91.1965 100.339 91.5815 100.675 91.8811 101.082L103.601 97.4355L101.828 103.572L90.9698 106.094C90.2537 106.553 89.3945 106.733 88.555 106.599C87.7155 106.466 86.954 106.029 86.4148 105.37C85.8757 104.712 85.5963 103.878 85.6296 103.028C85.663 102.177 86.0067 101.368 86.5957 100.754L86.5957 100.754Z" fill="#FFB6B6"/>
<path d="M100.805 104.149L122.559 99.656L116.913 101.057C116.977 100.887 123.322 84.0429 124.093 80.2642C124.582 77.986 124.278 75.6088 123.232 73.5274L123.203 73.4775L123.15 73.455C122.065 73.0015 120.858 72.932 119.727 73.2581C118.597 73.5841 117.612 74.2863 116.933 75.2487C113.683 79.9129 111.559 85.2701 110.73 90.8975L110.261 94.0991L102.592 96.3976L100.805 104.149Z" fill="#0066FF"/>
<path d="M60.2624 97.2874C60.3387 97.5098 60.4833 97.7024 60.6756 97.8373C60.8679 97.9722 61.0979 98.0426 61.3327 98.0384L65.9181 97.9202C66.1546 97.9156 66.3832 97.8344 66.5698 97.6889C66.7564 97.5433 66.8909 97.3412 66.9533 97.1127L67.6022 90.1617C67.8324 90.2662 68.0831 90.3178 68.3358 90.3127C68.7791 90.3016 69.1999 90.1144 69.5056 89.7925C69.8112 89.4705 69.9767 89.0401 69.9655 88.596C69.9544 88.1518 69.7676 87.7303 69.4462 87.4241C69.1248 87.1179 68.6952 86.9521 68.2518 86.9633C68.1508 86.963 68.0501 86.9734 67.9513 86.9946C67.8439 86.8782 67.7133 86.7856 67.568 86.7228C67.4227 86.66 67.2659 86.6283 67.1077 86.6299L60.0542 86.8124C59.9957 86.8146 59.9375 86.8218 59.8802 86.834C59.7255 86.8629 59.5788 86.9247 59.45 87.0151C59.3211 87.1056 59.2131 87.2226 59.1331 87.3584C59.0532 87.4942 59.0033 87.6455 58.9866 87.8023C58.97 87.959 58.9871 88.1175 59.0367 88.2671L60.2624 97.2874ZM67.7353 89.6898L68.197 88.0333C68.2496 87.842 68.2508 87.6402 68.2006 87.4482C68.223 87.4481 68.2427 87.4375 68.2651 87.4375C68.5817 87.4309 68.888 87.5504 69.1168 87.7697C69.3456 87.989 69.4782 88.2903 69.4857 88.6074C69.4931 88.9245 69.3746 89.2317 69.1563 89.4615C68.938 89.6913 68.6377 89.825 68.3211 89.8333C68.1165 89.8397 67.9139 89.7901 67.7353 89.6898Z" fill="#2F2E41"/>
<path d="M59.8809 86.8343C60.0311 87.695 61.7206 88.3001 63.7521 88.1949C65.6202 88.1087 67.1477 87.4516 67.4276 86.6728C67.324 86.6421 67.2163 86.6277 67.1083 86.6301L60.0548 86.8126C59.9963 86.8148 59.9381 86.822 59.8809 86.8343V86.8343Z" fill="#3F3D56"/>
<path d="M29.207 80.5416V95.4023C29.2072 95.5917 29.2823 95.7733 29.416 95.9072C29.5497 96.0411 29.7309 96.1164 29.92 96.1165H51.9031C52.0921 96.1164 52.2734 96.0411 52.4071 95.9072C52.5407 95.7733 52.6159 95.5917 52.6161 95.4023V80.5416C52.6156 80.3523 52.5403 80.171 52.4067 80.0373C52.2731 79.9036 52.092 79.8284 51.9031 79.8281H29.92C29.7311 79.8284 29.55 79.9036 29.4164 80.0373C29.2828 80.171 29.2075 80.3523 29.207 80.5416V80.5416Z" fill="#3F3D56"/>
<path d="M29.7227 80.7263V95.2188C29.7228 95.32 29.763 95.417 29.8345 95.4885C29.9059 95.56 30.0027 95.6003 30.1037 95.6005H51.72C51.821 95.6003 51.9178 95.56 51.9893 95.4885C52.0607 95.417 52.1009 95.32 52.1011 95.2188V80.7263C52.101 80.625 52.0609 80.5278 51.9895 80.4561C51.9181 80.3844 51.8211 80.344 51.72 80.3438H30.1037C30.0026 80.344 29.9057 80.3844 29.8342 80.4561C29.7628 80.5278 29.7227 80.625 29.7227 80.7263V80.7263Z" fill="#0066FF"/>
<path d="M28.7478 98.3001C28.788 98.3507 28.8392 98.3914 28.8975 98.4194C28.9558 98.4473 29.0196 98.4616 29.0842 98.4613H52.6229C52.6873 98.4612 52.7508 98.4468 52.8089 98.419C52.867 98.3912 52.9182 98.3508 52.9588 98.3007C52.9993 98.2507 53.0282 98.1921 53.0433 98.1295C53.0585 98.0668 53.0595 98.0015 53.0463 97.9384L52.6809 96.1997C52.6657 96.1288 52.6331 96.0628 52.586 96.0078C52.5389 95.9527 52.4788 95.9103 52.4112 95.8845C52.3622 95.8653 52.3101 95.8554 52.2575 95.8555H29.4481C29.3955 95.8554 29.3434 95.8653 29.2944 95.8845C29.2268 95.9103 29.1667 95.9527 29.1196 96.0078C29.0725 96.0628 29.0399 96.1288 29.0247 96.1997L28.6593 97.9384C28.6463 98.0015 28.6475 98.0667 28.6628 98.1292C28.6781 98.1918 28.7071 98.2502 28.7478 98.3001V98.3001Z" fill="#2F2E41"/>
<path d="M51.4494 96.6045H52.0053C52.052 96.6045 52.0898 96.5666 52.0898 96.5198V96.2534C52.0898 96.2066 52.052 96.1687 52.0053 96.1687H51.4494C51.4027 96.1687 51.3649 96.2066 51.3649 96.2534V96.5198C51.3649 96.5666 51.4027 96.6045 51.4494 96.6045Z" fill="#3F3D56"/>
<path d="M50.0001 96.6045H50.5561C50.6028 96.6045 50.6406 96.5666 50.6406 96.5198V96.2534C50.6406 96.2066 50.6028 96.1687 50.5561 96.1687H50.0001C49.9535 96.1687 49.9156 96.2066 49.9156 96.2534V96.5198C49.9156 96.5666 49.9535 96.6045 50.0001 96.6045Z" fill="#3F3D56"/>
<path d="M48.549 96.6045H49.105C49.1516 96.6045 49.1895 96.5666 49.1895 96.5198V96.2534C49.1895 96.2066 49.1516 96.1687 49.105 96.1687H48.549C48.5023 96.1687 48.4645 96.2066 48.4645 96.2534V96.5198C48.4645 96.5666 48.5023 96.6045 48.549 96.6045Z" fill="#3F3D56"/>
<path d="M47.0997 96.6045H47.6557C47.7024 96.6045 47.7402 96.5666 47.7402 96.5198V96.2534C47.7402 96.2066 47.7024 96.1687 47.6557 96.1687H47.0997C47.0531 96.1687 47.0152 96.2066 47.0152 96.2534V96.5198C47.0152 96.5666 47.0531 96.6045 47.0997 96.6045Z" fill="#3F3D56"/>
<path d="M45.6505 96.6045H46.2065C46.2532 96.6045 46.291 96.5666 46.291 96.5198V96.2534C46.291 96.2066 46.2532 96.1687 46.2065 96.1687H45.6505C45.6039 96.1687 45.566 96.2066 45.566 96.2534V96.5198C45.566 96.5666 45.6039 96.6045 45.6505 96.6045Z" fill="#3F3D56"/>
<path d="M44.1994 96.6045H44.7553C44.802 96.6045 44.8398 96.5666 44.8398 96.5198V96.2534C44.8398 96.2066 44.802 96.1687 44.7553 96.1687H44.1994C44.1527 96.1687 44.1149 96.2066 44.1149 96.2534V96.5198C44.1149 96.5666 44.1527 96.6045 44.1994 96.6045Z" fill="#3F3D56"/>
<path d="M42.7501 96.6045H43.3061C43.3528 96.6045 43.3906 96.5666 43.3906 96.5198V96.2534C43.3906 96.2066 43.3528 96.1687 43.3061 96.1687H42.7501C42.7035 96.1687 42.6656 96.2066 42.6656 96.2534V96.5198C42.6656 96.5666 42.7035 96.6045 42.7501 96.6045Z" fill="#3F3D56"/>
<path d="M41.3009 96.6045H41.8569C41.9036 96.6045 41.9414 96.5666 41.9414 96.5198V96.2534C41.9414 96.2066 41.9036 96.1687 41.8569 96.1687H41.3009C41.2543 96.1687 41.2164 96.2066 41.2164 96.2534V96.5198C41.2164 96.5666 41.2543 96.6045 41.3009 96.6045Z" fill="#3F3D56"/>
<path d="M39.8497 96.6045H40.4057C40.4524 96.6045 40.4902 96.5666 40.4902 96.5198V96.2534C40.4902 96.2066 40.4524 96.1687 40.4057 96.1687H39.8497C39.8031 96.1687 39.7652 96.2066 39.7652 96.2534V96.5198C39.7652 96.5666 39.8031 96.6045 39.8497 96.6045Z" fill="#3F3D56"/>
<path d="M38.4005 96.6045H38.9565C39.0032 96.6045 39.041 96.5666 39.041 96.5198V96.2534C39.041 96.2066 39.0032 96.1687 38.9565 96.1687H38.4005C38.3539 96.1687 38.316 96.2066 38.316 96.2534V96.5198C38.316 96.5666 38.3539 96.6045 38.4005 96.6045Z" fill="#3F3D56"/>
<path d="M36.9494 96.6045H37.5053C37.552 96.6045 37.5898 96.5666 37.5898 96.5198V96.2534C37.5898 96.2066 37.552 96.1687 37.5053 96.1687H36.9494C36.9027 96.1687 36.8649 96.2066 36.8649 96.2534V96.5198C36.8649 96.5666 36.9027 96.6045 36.9494 96.6045Z" fill="#3F3D56"/>
<path d="M35.5001 96.6045H36.0561C36.1028 96.6045 36.1406 96.5666 36.1406 96.5198V96.2534C36.1406 96.2066 36.1028 96.1687 36.0561 96.1687H35.5001C35.4535 96.1687 35.4156 96.2066 35.4156 96.2534V96.5198C35.4156 96.5666 35.4535 96.6045 35.5001 96.6045Z" fill="#3F3D56"/>
<path d="M34.0509 96.6045H34.6069C34.6536 96.6045 34.6914 96.5666 34.6914 96.5198V96.2534C34.6914 96.2066 34.6536 96.1687 34.6069 96.1687H34.0509C34.0043 96.1687 33.9664 96.2066 33.9664 96.2534V96.5198C33.9664 96.5666 34.0043 96.6045 34.0509 96.6045Z" fill="#3F3D56"/>
<path d="M32.5998 96.6045H33.1557C33.2024 96.6045 33.2402 96.5666 33.2402 96.5198V96.2534C33.2402 96.2066 33.2024 96.1687 33.1557 96.1687H32.5998C32.5531 96.1687 32.5153 96.2066 32.5153 96.2534V96.5198C32.5153 96.5666 32.5531 96.6045 32.5998 96.6045Z" fill="#3F3D56"/>
<path d="M31.1505 96.6045H31.7065C31.7532 96.6045 31.791 96.5666 31.791 96.5198V96.2534C31.791 96.2066 31.7532 96.1687 31.7065 96.1687H31.1505C31.1039 96.1687 31.066 96.2066 31.066 96.2534V96.5198C31.066 96.5666 31.1039 96.6045 31.1505 96.6045Z" fill="#3F3D56"/>
<path d="M29.7013 96.6045H30.2573C30.304 96.6045 30.3418 96.5666 30.3418 96.5198V96.2534C30.3418 96.2066 30.304 96.1687 30.2573 96.1687H29.7013C29.6546 96.1687 29.6168 96.2066 29.6168 96.2534V96.5198C29.6168 96.5666 29.6546 96.6045 29.7013 96.6045Z" fill="#3F3D56"/>
<path d="M51.4669 97.3311H52.0229C52.0696 97.3311 52.1074 97.2932 52.1074 97.2464V96.9799C52.1074 96.9332 52.0696 96.8953 52.0229 96.8953H51.4669C51.4203 96.8953 51.3824 96.9332 51.3824 96.9799V97.2464C51.3824 97.2932 51.4203 97.3311 51.4669 97.3311Z" fill="#3F3D56"/>
<path d="M50.0177 97.3311H50.5737C50.6204 97.3311 50.6582 97.2932 50.6582 97.2464V96.9799C50.6582 96.9332 50.6204 96.8953 50.5737 96.8953H50.0177C49.9711 96.8953 49.9332 96.9332 49.9332 96.9799V97.2464C49.9332 97.2932 49.9711 97.3311 50.0177 97.3311Z" fill="#3F3D56"/>
<path d="M48.5666 97.3311H49.1225C49.1692 97.3311 49.207 97.2932 49.207 97.2464V96.9799C49.207 96.9332 49.1692 96.8953 49.1225 96.8953H48.5666C48.5199 96.8953 48.4821 96.9332 48.4821 96.9799V97.2464C48.4821 97.2932 48.5199 97.3311 48.5666 97.3311Z" fill="#3F3D56"/>
<path d="M47.1173 97.3311H47.6733C47.72 97.3311 47.7578 97.2932 47.7578 97.2464V96.9799C47.7578 96.9332 47.72 96.8953 47.6733 96.8953H47.1173C47.0707 96.8953 47.0328 96.9332 47.0328 96.9799V97.2464C47.0328 97.2932 47.0707 97.3311 47.1173 97.3311Z" fill="#3F3D56"/>
<path d="M45.6662 97.3311H46.2221C46.2688 97.3311 46.3066 97.2932 46.3066 97.2464V96.9799C46.3066 96.9332 46.2688 96.8953 46.2221 96.8953H45.6662C45.6195 96.8953 45.5817 96.9332 45.5817 96.9799V97.2464C45.5817 97.2932 45.6195 97.3311 45.6662 97.3311Z" fill="#3F3D56"/>
<path d="M44.2169 97.3311H44.7729C44.8196 97.3311 44.8574 97.2932 44.8574 97.2464V96.9799C44.8574 96.9332 44.8196 96.8953 44.7729 96.8953H44.2169C44.1703 96.8953 44.1324 96.9332 44.1324 96.9799V97.2464C44.1324 97.2932 44.1703 97.3311 44.2169 97.3311Z" fill="#3F3D56"/>
<path d="M42.7677 97.3311H43.3237C43.3704 97.3311 43.4082 97.2932 43.4082 97.2464V96.9799C43.4082 96.9332 43.3704 96.8953 43.3237 96.8953H42.7677C42.7211 96.8953 42.6832 96.9332 42.6832 96.9799V97.2464C42.6832 97.2932 42.7211 97.3311 42.7677 97.3311Z" fill="#3F3D56"/>
<path d="M41.3165 97.3311H41.8725C41.9192 97.3311 41.957 97.2932 41.957 97.2464V96.9799C41.957 96.9332 41.9192 96.8953 41.8725 96.8953H41.3165C41.2699 96.8953 41.232 96.9332 41.232 96.9799V97.2464C41.232 97.2932 41.2699 97.3311 41.3165 97.3311Z" fill="#3F3D56"/>
<path d="M39.8673 97.3311H40.4233C40.47 97.3311 40.5078 97.2932 40.5078 97.2464V96.9799C40.5078 96.9332 40.47 96.8953 40.4233 96.8953H39.8673C39.8207 96.8953 39.7828 96.9332 39.7828 96.9799V97.2464C39.7828 97.2932 39.8207 97.3311 39.8673 97.3311Z" fill="#3F3D56"/>
<path d="M38.4181 97.3311H38.9741C39.0208 97.3311 39.0586 97.2932 39.0586 97.2464V96.9799C39.0586 96.9332 39.0208 96.8953 38.9741 96.8953H38.4181C38.3714 96.8953 38.3336 96.9332 38.3336 96.9799V97.2464C38.3336 97.2932 38.3714 97.3311 38.4181 97.3311Z" fill="#3F3D56"/>
<path d="M36.9669 97.3311H37.5229C37.5696 97.3311 37.6074 97.2932 37.6074 97.2464V96.9799C37.6074 96.9332 37.5696 96.8953 37.5229 96.8953H36.9669C36.9203 96.8953 36.8824 96.9332 36.8824 96.9799V97.2464C36.8824 97.2932 36.9203 97.3311 36.9669 97.3311Z" fill="#3F3D56"/>
<path d="M35.5177 97.3311H36.0737C36.1204 97.3311 36.1582 97.2932 36.1582 97.2464V96.9799C36.1582 96.9332 36.1204 96.8953 36.0737 96.8953H35.5177C35.4711 96.8953 35.4332 96.9332 35.4332 96.9799V97.2464C35.4332 97.2932 35.4711 97.3311 35.5177 97.3311Z" fill="#3F3D56"/>
<path d="M34.0665 97.3311H34.6225C34.6692 97.3311 34.707 97.2932 34.707 97.2464V96.9799C34.707 96.9332 34.6692 96.8953 34.6225 96.8953H34.0665C34.0199 96.8953 33.982 96.9332 33.982 96.9799V97.2464C33.982 97.2932 34.0199 97.3311 34.0665 97.3311Z" fill="#3F3D56"/>
<path d="M32.6173 97.3311H33.1733C33.22 97.3311 33.2578 97.2932 33.2578 97.2464V96.9799C33.2578 96.9332 33.22 96.8953 33.1733 96.8953H32.6173C32.5707 96.8953 32.5328 96.9332 32.5328 96.9799V97.2464C32.5328 97.2932 32.5707 97.3311 32.6173 97.3311Z" fill="#3F3D56"/>
<path d="M31.1681 97.3311H31.7241C31.7708 97.3311 31.8086 97.2932 31.8086 97.2464V96.9799C31.8086 96.9332 31.7708 96.8953 31.7241 96.8953H31.1681C31.1214 96.8953 31.0836 96.9332 31.0836 96.9799V97.2464C31.0836 97.2932 31.1214 97.3311 31.1681 97.3311Z" fill="#3F3D56"/>
<path d="M29.7169 97.3311H30.2729C30.3196 97.3311 30.3574 97.2932 30.3574 97.2464V96.9799C30.3574 96.9332 30.3196 96.8953 30.2729 96.8953H29.7169C29.6703 96.8953 29.6324 96.9332 29.6324 96.9799V97.2464C29.6324 97.2932 29.6703 97.3311 29.7169 97.3311Z" fill="#3F3D56"/>
<path d="M39.4331 98.2021H45.0639C45.1106 98.2021 45.1484 98.1643 45.1484 98.1175V97.851C45.1484 97.8043 45.1106 97.7664 45.0639 97.7664H39.4331C39.3864 97.7664 39.3486 97.8043 39.3486 97.851V98.1175C39.3486 98.1643 39.3864 98.2021 39.4331 98.2021Z" fill="#3F3D56"/>
<path d="M81.864 97.4924L91.7023 88.8757C92.1701 88.466 91.278 89.6867 91.687 90.1553C92.096 90.624 93.6512 90.163 93.1834 90.5727L83.345 99.1895L80.8535 99.7594L81.864 97.4924Z" fill="#3F3D56"/>
<path d="M81.864 97.4921L82.1025 97.2832C82.4208 97.443 82.7048 97.6638 82.9385 97.9329C83.2152 98.2492 83.4162 98.6246 83.5262 99.0304L83.345 99.1891L81.3593 99.643L80.8535 99.759L81.0644 99.2841L81.864 97.4921Z" fill="#CCCCCC"/>
<path d="M81.0644 99.2842C81.1382 99.3167 81.2032 99.3662 81.2545 99.4285C81.3057 99.4909 81.3416 99.5644 81.3593 99.6431L80.8535 99.7591L81.0644 99.2842Z" fill="#3F3D56"/>
<path d="M146.057 69.875C145.129 71.2656 143.644 72.2279 142.045 72.7048C141.395 72.8985 140.724 73.0126 140.047 73.0446C139.964 72.2777 139.763 71.528 139.453 70.8217C139.485 71.5735 139.381 72.3248 139.145 73.0394C138.129 72.9817 137.135 72.7149 136.225 72.2557C134.451 71.3454 133.086 69.6045 132.783 67.6295C132.426 65.3233 133.47 63.0588 133.847 60.7561C134.226 58.4534 133.515 55.5368 131.265 54.9317C129.551 54.4704 129.743 54.6698 128.319 55.7293C129.8 57.9242 124.327 65.9675 122.087 65.2661C120.821 64.8695 120.01 63.7055 119.749 63.7055C117.989 66.7434 121.303 71.8621 117.963 72.925L118.238 72.6493C120.254 70.1645 116.04 64.9054 118.056 62.4207C118.619 61.7253 119.218 60.9017 119.051 60.0226C118.894 59.1868 117.57 58.7447 117.182 59.4313C117.88 57.8309 116.85 55.6946 115.145 55.2837C113.63 54.9178 113.658 55.3686 112.138 55.5646C112.039 54.9066 111.853 54.2647 111.586 53.6555C111.614 54.3119 111.537 54.9686 111.359 55.601C110.823 55.5905 110.304 55.4027 109.885 55.0669C108.645 54.0664 108.896 51.9649 110.002 50.8187C111.11 49.6726 112.756 49.2599 114.326 48.9928C114.782 45.8092 123.551 45.477 124.713 48.6582C125.208 46.2827 128.177 45.0498 130.484 45.7868C132.791 46.5237 134.392 48.6825 135.235 50.9574C136.078 53.2307 136.314 55.6773 136.833 58.0459C137.352 60.4145 138.23 62.8264 140.037 64.4407C141.844 66.0533 144.788 66.5874 146.692 65.0892C147.293 66.6498 146.983 68.4826 146.057 69.875Z" fill="#2F2E41"/>
</g>
<defs>
<clipPath id="clip0_1103_953">
<rect width="147" height="146" fill="white"/>
</clipPath>
</defs>
</svg>
