<svg viewBox="0 0 524 381" fill="none" xmlns="http://www.w3.org/2000/svg">
<g clip-path="url(#clip0_1059_97)">
<path d="M305.229 67.1662C315.05 67.1662 323.011 59.2072 323.011 49.3892C323.011 39.5713 315.05 31.6123 305.229 31.6123C295.409 31.6123 287.447 39.5713 287.447 49.3892C287.447 59.2072 295.409 67.1662 305.229 67.1662Z" fill="#F2F2F2"/>
<path d="M443.169 330.996C469.6 310.87 482.224 277.05 474.321 244.788C474.124 243.987 473.917 243.187 473.699 242.389C468.459 223.239 455.497 205.038 436.604 198.919C420.741 193.781 403.426 197.732 386.876 195.689C354.389 191.678 329.203 165.4 311.481 137.886C293.759 110.372 280.139 79.5746 256.591 56.8441C217.774 19.3769 154.456 11.3102 106.329 35.6986C58.2032 60.087 27.5473 114.195 28.8547 168.12C30.1621 222.045 62.1841 273.601 108.688 300.955C125.772 311.004 145.53 318.122 165.195 315.631C182.257 313.47 197.76 304.305 214.742 301.584C241.442 297.306 267.971 309.374 291.064 323.437C314.157 337.5 336.464 354.17 362.706 360.689C388.187 367.02 419.755 348.824 443.169 330.996Z" fill="#F2F2F2"/>
<path d="M405.194 36.8312C404.614 36.445 404.028 36.0788 403.449 35.706C386.701 24.9974 368.749 16.2978 349.965 9.78702L345.609 69.854H317.998V1.01865C316.26 0.659125 314.508 0.319576 312.757 0V69.854H279.944C261.881 69.854 244.557 62.6803 231.784 49.9111C219.011 37.1418 211.836 19.8229 211.836 1.7644V1.76434C210.077 2.14384 208.333 2.54997 206.588 2.98273V69.8541H179.862L175.713 12.5767C156.41 19.9777 138.084 29.7105 121.144 41.5583C120.851 41.758 120.557 41.9644 120.271 42.1641C118.799 43.1961 117.348 44.248 115.902 45.3133V274.469H194.667L193.275 255.195L185.616 149.369H339.849L332.19 255.195L330.798 274.469H408.69V39.1481C407.531 38.3625 406.366 37.5902 405.194 36.8312ZM206.588 131.892H184.351L180.242 75.1004H206.588V131.892ZM312.757 131.892H275.409V130.767C275.409 130.226 275.303 129.69 275.095 129.19C274.888 128.691 274.584 128.237 274.202 127.855C273.819 127.473 273.364 127.17 272.864 126.963C272.364 126.757 271.828 126.651 271.287 126.652H255.051C254.51 126.652 253.975 126.758 253.475 126.965C252.976 127.172 252.522 127.475 252.14 127.857C251.758 128.239 251.454 128.693 251.248 129.192C251.041 129.691 250.935 130.226 250.935 130.767V131.892H211.836V75.1004H312.757V131.892ZM317.998 131.892V75.1004H345.23L341.121 131.892H317.998Z" fill="#3F3D56"/>
<path d="M0 289.144C5.78547 295.997 12.0431 302.437 18.7271 308.418L505.273 309.084C511.957 303.103 518.215 296.663 524 289.809L0 289.144Z" fill="#3F3D56"/>
<path d="M329.943 227.426V284.486C329.944 285.213 330.233 285.911 330.747 286.425C331.262 286.939 331.959 287.228 332.687 287.229H417.268C417.995 287.228 418.693 286.939 419.207 286.425C419.721 285.911 420.011 285.213 420.011 284.486V227.426C420.009 226.699 419.72 226.003 419.206 225.49C418.691 224.976 417.995 224.687 417.268 224.687H332.687C331.96 224.687 331.263 224.976 330.749 225.49C330.235 226.003 329.945 226.699 329.943 227.426V227.426Z" fill="#3F3D56"/>
<path d="M331.926 228.136V283.782C331.926 284.171 332.081 284.543 332.356 284.818C332.631 285.093 333.003 285.247 333.392 285.248H416.562C416.951 285.247 417.323 285.093 417.598 284.818C417.873 284.543 418.027 284.171 418.028 283.782V228.136C418.028 227.747 417.874 227.374 417.599 227.098C417.324 226.823 416.951 226.668 416.562 226.667H333.392C333.003 226.668 332.63 226.823 332.355 227.098C332.08 227.374 331.926 227.747 331.926 228.136V228.136Z" fill="#0066FF"/>
<path d="M328.174 295.615C328.329 295.809 328.525 295.966 328.75 296.073C328.974 296.18 329.219 296.235 329.468 296.234H420.035C420.282 296.234 420.527 296.178 420.75 296.072C420.974 295.965 421.171 295.81 421.327 295.618C421.483 295.425 421.594 295.201 421.652 294.96C421.711 294.719 421.714 294.469 421.664 294.226L420.258 287.55C420.2 287.278 420.074 287.025 419.893 286.813C419.712 286.602 419.48 286.439 419.22 286.34C419.032 286.266 418.831 286.228 418.629 286.229H330.868C330.666 286.228 330.465 286.266 330.277 286.34C330.017 286.439 329.785 286.602 329.604 286.813C329.423 287.025 329.297 287.278 329.239 287.55L327.833 294.226C327.783 294.469 327.788 294.719 327.847 294.959C327.906 295.199 328.017 295.423 328.174 295.615V295.615Z" fill="#2F2E41"/>
<path d="M415.522 289.104H417.661C417.841 289.104 417.986 288.958 417.986 288.779V287.755C417.986 287.576 417.841 287.43 417.661 287.43H415.522C415.343 287.43 415.197 287.576 415.197 287.755V288.779C415.197 288.958 415.343 289.104 415.522 289.104Z" fill="#3F3D56"/>
<path d="M409.942 289.104H412.081C412.261 289.104 412.406 288.958 412.406 288.779V287.755C412.406 287.576 412.261 287.43 412.081 287.43H409.942C409.762 287.43 409.617 287.576 409.617 287.755V288.779C409.617 288.958 409.762 289.104 409.942 289.104Z" fill="#3F3D56"/>
<path d="M404.364 289.104H406.503C406.683 289.104 406.828 288.958 406.828 288.779V287.755C406.828 287.576 406.683 287.43 406.503 287.43H404.364C404.184 287.43 404.039 287.576 404.039 287.755V288.779C404.039 288.958 404.184 289.104 404.364 289.104Z" fill="#3F3D56"/>
<path d="M398.784 289.104H400.923C401.102 289.104 401.248 288.958 401.248 288.779V287.755C401.248 287.576 401.102 287.43 400.923 287.43H398.784C398.604 287.43 398.459 287.576 398.459 287.755V288.779C398.459 288.958 398.604 289.104 398.784 289.104Z" fill="#3F3D56"/>
<path d="M393.206 289.104H395.345C395.524 289.104 395.67 288.958 395.67 288.779V287.755C395.67 287.576 395.524 287.43 395.345 287.43H393.206C393.026 287.43 392.881 287.576 392.881 287.755V288.779C392.881 288.958 393.026 289.104 393.206 289.104Z" fill="#3F3D56"/>
<path d="M387.627 289.104H389.767C389.946 289.104 390.092 288.958 390.092 288.779V287.755C390.092 287.576 389.946 287.43 389.767 287.43H387.627C387.448 287.43 387.302 287.576 387.302 287.755V288.779C387.302 288.958 387.448 289.104 387.627 289.104Z" fill="#3F3D56"/>
<path d="M382.047 289.104H384.187C384.366 289.104 384.512 288.958 384.512 288.779V287.755C384.512 287.576 384.366 287.43 384.187 287.43H382.047C381.868 287.43 381.722 287.576 381.722 287.755V288.779C381.722 288.958 381.868 289.104 382.047 289.104Z" fill="#3F3D56"/>
<path d="M376.469 289.104H378.608C378.788 289.104 378.934 288.958 378.934 288.779V287.755C378.934 287.576 378.788 287.43 378.608 287.43H376.469C376.29 287.43 376.144 287.576 376.144 287.755V288.779C376.144 288.958 376.29 289.104 376.469 289.104Z" fill="#3F3D56"/>
<path d="M370.891 289.104H373.03C373.21 289.104 373.355 288.958 373.355 288.779V287.755C373.355 287.576 373.21 287.43 373.03 287.43H370.891C370.712 287.43 370.566 287.576 370.566 287.755V288.779C370.566 288.958 370.712 289.104 370.891 289.104Z" fill="#3F3D56"/>
<path d="M365.311 289.104H367.45C367.63 289.104 367.775 288.958 367.775 288.779V287.755C367.775 287.576 367.63 287.43 367.45 287.43H365.311C365.132 287.43 364.986 287.576 364.986 287.755V288.779C364.986 288.958 365.132 289.104 365.311 289.104Z" fill="#3F3D56"/>
<path d="M359.733 289.104H361.872C362.052 289.104 362.197 288.958 362.197 288.779V287.755C362.197 287.576 362.052 287.43 361.872 287.43H359.733C359.553 287.43 359.408 287.576 359.408 287.755V288.779C359.408 288.958 359.553 289.104 359.733 289.104Z" fill="#3F3D56"/>
<path d="M354.155 289.104H356.294C356.474 289.104 356.619 288.958 356.619 288.779V287.755C356.619 287.576 356.474 287.43 356.294 287.43H354.155C353.975 287.43 353.83 287.576 353.83 287.755V288.779C353.83 288.958 353.975 289.104 354.155 289.104Z" fill="#3F3D56"/>
<path d="M348.575 289.104H350.714C350.893 289.104 351.039 288.958 351.039 288.779V287.755C351.039 287.576 350.893 287.43 350.714 287.43H348.575C348.395 287.43 348.25 287.576 348.25 287.755V288.779C348.25 288.958 348.395 289.104 348.575 289.104Z" fill="#3F3D56"/>
<path d="M342.997 289.104H345.136C345.315 289.104 345.461 288.958 345.461 288.779V287.755C345.461 287.576 345.315 287.43 345.136 287.43H342.997C342.817 287.43 342.671 287.576 342.671 287.755V288.779C342.671 288.958 342.817 289.104 342.997 289.104Z" fill="#3F3D56"/>
<path d="M337.417 289.104H339.556C339.735 289.104 339.881 288.958 339.881 288.779V287.755C339.881 287.576 339.735 287.43 339.556 287.43H337.417C337.237 287.43 337.091 287.576 337.091 287.755V288.779C337.091 288.958 337.237 289.104 337.417 289.104Z" fill="#3F3D56"/>
<path d="M331.838 289.104H333.978C334.157 289.104 334.303 288.958 334.303 288.779V287.755C334.303 287.576 334.157 287.43 333.978 287.43H331.838C331.659 287.43 331.513 287.576 331.513 287.755V288.779C331.513 288.958 331.659 289.104 331.838 289.104Z" fill="#3F3D56"/>
<path d="M415.586 291.893H417.726C417.905 291.893 418.051 291.747 418.051 291.568V290.544C418.051 290.365 417.905 290.219 417.726 290.219H415.586C415.407 290.219 415.261 290.365 415.261 290.544V291.568C415.261 291.747 415.407 291.893 415.586 291.893Z" fill="#3F3D56"/>
<path d="M410.008 291.893H412.148C412.327 291.893 412.473 291.747 412.473 291.568V290.544C412.473 290.365 412.327 290.219 412.148 290.219H410.008C409.829 290.219 409.683 290.365 409.683 290.544V291.568C409.683 291.747 409.829 291.893 410.008 291.893Z" fill="#3F3D56"/>
<path d="M404.43 291.893H406.569C406.749 291.893 406.895 291.747 406.895 291.568V290.544C406.895 290.365 406.749 290.219 406.569 290.219H404.43C404.251 290.219 404.105 290.365 404.105 290.544V291.568C404.105 291.747 404.251 291.893 404.43 291.893Z" fill="#3F3D56"/>
<path d="M398.85 291.893H400.989C401.169 291.893 401.314 291.747 401.314 291.568V290.544C401.314 290.365 401.169 290.219 400.989 290.219H398.85C398.671 290.219 398.525 290.365 398.525 290.544V291.568C398.525 291.747 398.671 291.893 398.85 291.893Z" fill="#3F3D56"/>
<path d="M393.272 291.893H395.411C395.591 291.893 395.736 291.747 395.736 291.568V290.544C395.736 290.365 395.591 290.219 395.411 290.219H393.272C393.093 290.219 392.947 290.365 392.947 290.544V291.568C392.947 291.747 393.093 291.893 393.272 291.893Z" fill="#3F3D56"/>
<path d="M387.692 291.893H389.831C390.011 291.893 390.156 291.747 390.156 291.568V290.544C390.156 290.365 390.011 290.219 389.831 290.219H387.692C387.512 290.219 387.367 290.365 387.367 290.544V291.568C387.367 291.747 387.512 291.893 387.692 291.893Z" fill="#3F3D56"/>
<path d="M382.114 291.893H384.253C384.433 291.893 384.578 291.747 384.578 291.568V290.544C384.578 290.365 384.433 290.219 384.253 290.219H382.114C381.934 290.219 381.789 290.365 381.789 290.544V291.568C381.789 291.747 381.934 291.893 382.114 291.893Z" fill="#3F3D56"/>
<path d="M376.536 291.893H378.675C378.854 291.893 379 291.747 379 291.568V290.544C379 290.365 378.854 290.219 378.675 290.219H376.536C376.356 290.219 376.211 290.365 376.211 290.544V291.568C376.211 291.747 376.356 291.893 376.536 291.893Z" fill="#3F3D56"/>
<path d="M370.956 291.893H373.095C373.274 291.893 373.42 291.747 373.42 291.568V290.544C373.42 290.365 373.274 290.219 373.095 290.219H370.956C370.776 290.219 370.631 290.365 370.631 290.544V291.568C370.631 291.747 370.776 291.893 370.956 291.893Z" fill="#3F3D56"/>
<path d="M365.377 291.893H367.517C367.696 291.893 367.842 291.747 367.842 291.568V290.544C367.842 290.365 367.696 290.219 367.517 290.219H365.377C365.198 290.219 365.052 290.365 365.052 290.544V291.568C365.052 291.747 365.198 291.893 365.377 291.893Z" fill="#3F3D56"/>
<path d="M359.799 291.893H361.939C362.118 291.893 362.264 291.747 362.264 291.568V290.544C362.264 290.365 362.118 290.219 361.939 290.219H359.799C359.62 290.219 359.474 290.365 359.474 290.544V291.568C359.474 291.747 359.62 291.893 359.799 291.893Z" fill="#3F3D56"/>
<path d="M354.219 291.893H356.358C356.538 291.893 356.684 291.747 356.684 291.568V290.544C356.684 290.365 356.538 290.219 356.358 290.219H354.219C354.04 290.219 353.894 290.365 353.894 290.544V291.568C353.894 291.747 354.04 291.893 354.219 291.893Z" fill="#3F3D56"/>
<path d="M348.641 291.893H350.78C350.96 291.893 351.105 291.747 351.105 291.568V290.544C351.105 290.365 350.96 290.219 350.78 290.219H348.641C348.462 290.219 348.316 290.365 348.316 290.544V291.568C348.316 291.747 348.462 291.893 348.641 291.893Z" fill="#3F3D56"/>
<path d="M343.063 291.893H345.202C345.382 291.893 345.527 291.747 345.527 291.568V290.544C345.527 290.365 345.382 290.219 345.202 290.219H343.063C342.883 290.219 342.738 290.365 342.738 290.544V291.568C342.738 291.747 342.883 291.893 343.063 291.893Z" fill="#3F3D56"/>
<path d="M337.483 291.893H339.622C339.802 291.893 339.947 291.747 339.947 291.568V290.544C339.947 290.365 339.802 290.219 339.622 290.219H337.483C337.303 290.219 337.158 290.365 337.158 290.544V291.568C337.158 291.747 337.303 291.893 337.483 291.893Z" fill="#3F3D56"/>
<path d="M331.905 291.893H334.044C334.224 291.893 334.369 291.747 334.369 291.568V290.544C334.369 290.365 334.224 290.219 334.044 290.219H331.905C331.725 290.219 331.58 290.365 331.58 290.544V291.568C331.58 291.747 331.725 291.893 331.905 291.893Z" fill="#3F3D56"/>
<path d="M369.283 295.238H390.948C391.128 295.238 391.273 295.093 391.273 294.913V293.89C391.273 293.711 391.128 293.565 390.948 293.565H369.283C369.104 293.565 368.958 293.711 368.958 293.89V294.913C368.958 295.093 369.104 295.238 369.283 295.238Z" fill="#3F3D56"/>
<path d="M346.33 238.842H344.436C343.862 238.842 343.396 239.307 343.396 239.881C343.396 240.455 343.862 240.92 344.436 240.92H346.33C346.904 240.92 347.37 240.455 347.37 239.881C347.37 239.307 346.904 238.842 346.33 238.842Z" fill="white"/>
<path d="M367.988 238.842H366.094C365.52 238.842 365.055 239.307 365.055 239.881C365.055 240.455 365.52 240.92 366.094 240.92H367.988C368.562 240.92 369.028 240.455 369.028 239.881C369.028 239.307 368.562 238.842 367.988 238.842Z" fill="white"/>
<path d="M374.125 238.842H372.231C371.657 238.842 371.191 239.307 371.191 239.881C371.191 240.455 371.657 240.92 372.231 240.92H374.125C374.699 240.92 375.165 240.455 375.165 239.881C375.165 239.307 374.699 238.842 374.125 238.842Z" fill="white"/>
<path d="M362.097 238.668H350.327C349.753 238.668 349.287 239.133 349.287 239.707C349.287 240.281 349.753 240.747 350.327 240.747H362.097C362.671 240.747 363.137 240.281 363.137 239.707C363.137 239.133 362.671 238.668 362.097 238.668Z" fill="white"/>
<path d="M390.976 238.668H379.206C378.631 238.668 378.166 239.133 378.166 239.707C378.166 240.281 378.631 240.747 379.206 240.747H390.976C391.55 240.747 392.016 240.281 392.016 239.707C392.016 239.133 391.55 238.668 390.976 238.668Z" fill="white"/>
<path d="M352.105 243.533H350.212C349.637 243.533 349.172 243.999 349.172 244.573C349.172 245.147 349.637 245.612 350.212 245.612H352.105C352.68 245.612 353.145 245.147 353.145 244.573C353.145 243.999 352.68 243.533 352.105 243.533Z" fill="white"/>
<path d="M373.765 243.533H371.872C371.298 243.533 370.832 243.999 370.832 244.573C370.832 245.147 371.298 245.612 371.872 245.612H373.765C374.34 245.612 374.805 245.147 374.805 244.573C374.805 243.999 374.34 243.533 373.765 243.533Z" fill="white"/>
<path d="M379.902 243.533H378.008C377.434 243.533 376.969 243.999 376.969 244.573C376.969 245.147 377.434 245.612 378.008 245.612H379.902C380.476 245.612 380.942 245.147 380.942 244.573C380.942 243.999 380.476 243.533 379.902 243.533Z" fill="white"/>
<path d="M367.873 243.359H356.102C355.528 243.359 355.062 243.825 355.062 244.399C355.062 244.973 355.528 245.438 356.102 245.438H367.873C368.447 245.438 368.912 244.973 368.912 244.399C368.912 243.825 368.447 243.359 367.873 243.359Z" fill="white"/>
<path d="M396.751 243.359H384.981C384.407 243.359 383.941 243.825 383.941 244.399C383.941 244.973 384.407 245.438 384.981 245.438H396.751C397.326 245.438 397.791 244.973 397.791 244.399C397.791 243.825 397.326 243.359 396.751 243.359Z" fill="white"/>
<path d="M357.881 248.225H355.987C355.413 248.225 354.947 248.69 354.947 249.264C354.947 249.838 355.413 250.303 355.987 250.303H357.881C358.455 250.303 358.92 249.838 358.92 249.264C358.92 248.69 358.455 248.225 357.881 248.225Z" fill="white"/>
<path d="M379.541 248.225H377.647C377.073 248.225 376.607 248.69 376.607 249.264C376.607 249.838 377.073 250.303 377.647 250.303H379.541C380.115 250.303 380.58 249.838 380.58 249.264C380.58 248.69 380.115 248.225 379.541 248.225Z" fill="white"/>
<path d="M385.678 248.225H383.784C383.21 248.225 382.744 248.69 382.744 249.264C382.744 249.838 383.21 250.303 383.784 250.303H385.678C386.252 250.303 386.717 249.838 386.717 249.264C386.717 248.69 386.252 248.225 385.678 248.225Z" fill="white"/>
<path d="M373.65 248.051H361.879C361.305 248.051 360.84 248.516 360.84 249.09C360.84 249.664 361.305 250.129 361.879 250.129H373.65C374.224 250.129 374.689 249.664 374.689 249.09C374.689 248.516 374.224 248.051 373.65 248.051Z" fill="white"/>
<path d="M402.529 248.051H390.758C390.184 248.051 389.719 248.516 389.719 249.09C389.719 249.664 390.184 250.129 390.758 250.129H402.529C403.103 250.129 403.568 249.664 403.568 249.09C403.568 248.516 403.103 248.051 402.529 248.051Z" fill="white"/>
<path d="M363.656 252.916H361.762C361.188 252.916 360.723 253.381 360.723 253.955C360.723 254.529 361.188 254.995 361.762 254.995H363.656C364.23 254.995 364.696 254.529 364.696 253.955C364.696 253.381 364.23 252.916 363.656 252.916Z" fill="white"/>
<path d="M385.316 252.916H383.422C382.848 252.916 382.383 253.381 382.383 253.955C382.383 254.529 382.848 254.995 383.422 254.995H385.316C385.89 254.995 386.356 254.529 386.356 253.955C386.356 253.381 385.89 252.916 385.316 252.916Z" fill="white"/>
<path d="M391.453 252.916H389.559C388.985 252.916 388.52 253.381 388.52 253.955C388.52 254.529 388.985 254.995 389.559 254.995H391.453C392.027 254.995 392.493 254.529 392.493 253.955C392.493 253.381 392.027 252.916 391.453 252.916Z" fill="white"/>
<path d="M379.425 252.743H367.655C367.081 252.743 366.615 253.208 366.615 253.782C366.615 254.357 367.081 254.822 367.655 254.822H379.425C379.999 254.822 380.465 254.357 380.465 253.782C380.465 253.208 379.999 252.743 379.425 252.743Z" fill="white"/>
<path d="M367.988 271.571H366.094C365.52 271.571 365.055 272.037 365.055 272.611C365.055 273.185 365.52 273.65 366.094 273.65H367.988C368.562 273.65 369.028 273.185 369.028 272.611C369.028 272.037 368.562 271.571 367.988 271.571Z" fill="white"/>
<path d="M374.125 271.571H372.231C371.657 271.571 371.191 272.037 371.191 272.611C371.191 273.185 371.657 273.65 372.231 273.65H374.125C374.699 273.65 375.165 273.185 375.165 272.611C375.165 272.037 374.699 271.571 374.125 271.571Z" fill="white"/>
<path d="M390.976 271.745H379.206C378.631 271.745 378.166 272.21 378.166 272.784C378.166 273.358 378.631 273.824 379.206 273.824H390.976C391.55 273.824 392.016 273.358 392.016 272.784C392.016 272.21 391.55 271.745 390.976 271.745Z" fill="white"/>
<path d="M346.33 271.571H344.436C343.862 271.571 343.396 272.037 343.396 272.611C343.396 273.185 343.862 273.65 344.436 273.65H346.33C346.904 273.65 347.37 273.185 347.37 272.611C347.37 272.037 346.904 271.571 346.33 271.571Z" fill="white"/>
<path d="M362.097 271.745H350.327C349.753 271.745 349.287 272.21 349.287 272.784C349.287 273.358 349.753 273.824 350.327 273.824H362.097C362.671 273.824 363.137 273.358 363.137 272.784C363.137 272.21 362.671 271.745 362.097 271.745Z" fill="white"/>
<path d="M352.105 266.88H350.212C349.637 266.88 349.172 267.345 349.172 267.919C349.172 268.493 349.637 268.959 350.212 268.959H352.105C352.68 268.959 353.145 268.493 353.145 267.919C353.145 267.345 352.68 266.88 352.105 266.88Z" fill="white"/>
<path d="M373.765 266.88H371.872C371.298 266.88 370.832 267.345 370.832 267.919C370.832 268.493 371.298 268.959 371.872 268.959H373.765C374.34 268.959 374.805 268.493 374.805 267.919C374.805 267.345 374.34 266.88 373.765 266.88Z" fill="white"/>
<path d="M379.902 266.88H378.008C377.434 266.88 376.969 267.345 376.969 267.919C376.969 268.493 377.434 268.959 378.008 268.959H379.902C380.476 268.959 380.942 268.493 380.942 267.919C380.942 267.345 380.476 266.88 379.902 266.88Z" fill="white"/>
<path d="M367.873 267.054H356.102C355.528 267.054 355.062 267.519 355.062 268.093C355.062 268.667 355.528 269.132 356.102 269.132H367.873C368.447 269.132 368.912 268.667 368.912 268.093C368.912 267.519 368.447 267.054 367.873 267.054Z" fill="white"/>
<path d="M357.881 262.188H355.987C355.413 262.188 354.947 262.654 354.947 263.228C354.947 263.802 355.413 264.267 355.987 264.267H357.881C358.455 264.267 358.92 263.802 358.92 263.228C358.92 262.654 358.455 262.188 357.881 262.188Z" fill="white"/>
<path d="M379.541 262.188H377.647C377.073 262.188 376.607 262.654 376.607 263.228C376.607 263.802 377.073 264.267 377.647 264.267H379.541C380.115 264.267 380.58 263.802 380.58 263.228C380.58 262.654 380.115 262.188 379.541 262.188Z" fill="white"/>
<path d="M385.678 262.188H383.784C383.21 262.188 382.744 262.654 382.744 263.228C382.744 263.802 383.21 264.267 383.784 264.267H385.678C386.252 264.267 386.717 263.802 386.717 263.228C386.717 262.654 386.252 262.188 385.678 262.188Z" fill="white"/>
<path d="M373.65 262.361H361.879C361.305 262.361 360.84 262.827 360.84 263.401C360.84 263.975 361.305 264.44 361.879 264.44H373.65C374.224 264.44 374.689 263.975 374.689 263.401C374.689 262.827 374.224 262.361 373.65 262.361Z" fill="white"/>
<path d="M363.656 257.497H361.762C361.188 257.497 360.723 257.962 360.723 258.536C360.723 259.11 361.188 259.576 361.762 259.576H363.656C364.23 259.576 364.696 259.11 364.696 258.536C364.696 257.962 364.23 257.497 363.656 257.497Z" fill="white"/>
<path d="M385.316 257.497H383.422C382.848 257.497 382.383 257.962 382.383 258.536C382.383 259.11 382.848 259.576 383.422 259.576H385.316C385.89 259.576 386.356 259.11 386.356 258.536C386.356 257.962 385.89 257.497 385.316 257.497Z" fill="white"/>
<path d="M391.453 257.497H389.559C388.985 257.497 388.52 257.962 388.52 258.536C388.52 259.11 388.985 259.576 389.559 259.576H391.453C392.027 259.576 392.493 259.11 392.493 258.536C392.493 257.962 392.027 257.497 391.453 257.497Z" fill="white"/>
<path d="M379.425 257.67H367.655C367.081 257.67 366.615 258.135 366.615 258.709C366.615 259.283 367.081 259.749 367.655 259.749H379.425C379.999 259.749 380.465 259.283 380.465 258.709C380.465 258.135 379.999 257.67 379.425 257.67Z" fill="white"/>
<path d="M336.262 326.554L327.371 312.505L355.277 290.266L366.795 277.509C368.291 275.852 370.197 274.616 372.32 273.925C374.444 273.235 376.712 273.114 378.898 273.574C381.083 274.034 383.109 275.059 384.774 276.548C386.439 278.036 387.684 279.935 388.384 282.055C389.423 285.197 389.199 288.619 387.762 291.599C386.324 294.579 383.784 296.884 380.679 298.028L362.465 304.736L336.262 326.554Z" fill="#FFB6B6"/>
<path d="M127.66 224.689V292.972H175.51V224.689C175.511 224.198 175.354 223.72 175.063 223.324C174.772 222.929 174.361 222.637 173.892 222.492C173.671 222.419 173.439 222.383 173.206 222.386H129.971C129.668 222.385 129.368 222.444 129.088 222.56C128.807 222.675 128.553 222.845 128.338 223.059C128.123 223.273 127.953 223.527 127.837 223.807C127.72 224.087 127.66 224.386 127.66 224.689V224.689ZM146.334 248.152C146.347 246.806 146.89 245.519 147.847 244.571C148.803 243.624 150.095 243.092 151.442 243.092C152.789 243.092 154.081 243.624 155.037 244.571C155.994 245.519 156.538 246.806 156.55 248.152V256.075C156.543 257.424 156.002 258.717 155.045 259.669C154.088 260.621 152.792 261.155 151.442 261.155C150.092 261.155 148.796 260.621 147.839 259.669C146.882 258.717 146.341 257.424 146.334 256.075V248.152Z" fill="#2F2E41"/>
<path d="M127.514 290.788V297.373C127.515 297.714 127.65 298.041 127.891 298.282C128.132 298.524 128.458 298.661 128.799 298.664H174.371C174.713 298.663 175.04 298.526 175.281 298.284C175.522 298.042 175.657 297.714 175.657 297.373V290.788H127.514Z" fill="#3F3D56"/>
<path d="M52.3848 121.813V246.487C52.386 248.076 53.0179 249.599 54.1417 250.723C55.2655 251.846 56.7893 252.478 58.3785 252.479H243.186C244.775 252.478 246.299 251.846 247.423 250.723C248.546 249.599 249.178 248.076 249.179 246.487V121.813C249.176 120.225 248.543 118.704 247.419 117.582C246.296 116.46 244.774 115.829 243.186 115.827H58.3785C56.7906 115.829 55.2683 116.46 54.1449 117.582C53.0215 118.704 52.3886 120.225 52.3848 121.813Z" fill="#3F3D56"/>
<path d="M56.7207 123.363V244.949C56.7222 245.798 57.0601 246.611 57.6605 247.212C58.261 247.812 59.0749 248.15 59.924 248.151H241.648C242.497 248.15 243.311 247.812 243.911 247.212C244.512 246.611 244.85 245.798 244.851 244.949V123.363C244.851 122.513 244.514 121.698 243.913 121.097C243.313 120.495 242.498 120.156 241.648 120.154H59.924C59.0739 120.156 58.2592 120.495 57.6586 121.097C57.0581 121.698 56.7208 122.513 56.7207 123.363Z" fill="white"/>
<path d="M90.4453 298.219C90.6303 298.451 90.8654 298.638 91.133 298.766C91.4006 298.894 91.6938 298.959 91.9904 298.958H200.104C200.4 298.957 200.692 298.891 200.959 298.764C201.226 298.637 201.461 298.451 201.647 298.222C201.833 297.992 201.966 297.724 202.035 297.437C202.105 297.149 202.11 296.85 202.049 296.561L200.371 288.592C200.301 288.267 200.151 287.964 199.935 287.712C199.719 287.459 199.443 287.265 199.132 287.147C198.907 287.059 198.668 287.013 198.426 287.014H93.662C93.4204 287.013 93.181 287.059 92.9561 287.147C92.6454 287.265 92.3694 287.459 92.153 287.712C91.9367 287.964 91.7869 288.267 91.7173 288.592L90.0391 296.561C89.9794 296.85 89.9849 297.149 90.0551 297.436C90.1254 297.722 90.2587 297.99 90.4453 298.219Z" fill="#2F2E41"/>
<path d="M235.75 136.904H65.7121C65.5354 136.9 65.3672 136.827 65.2436 136.701C65.12 136.574 65.0508 136.404 65.0508 136.228C65.0508 136.051 65.12 135.881 65.2436 135.755C65.3672 135.629 65.5354 135.556 65.7121 135.552H235.75C235.927 135.556 236.095 135.629 236.219 135.755C236.342 135.881 236.412 136.051 236.412 136.228C236.412 136.404 236.342 136.574 236.219 136.701C236.095 136.827 235.927 136.9 235.75 136.904V136.904Z" fill="#3F3D56"/>
<path d="M77.287 132.1C79.4756 132.1 81.2499 130.287 81.2499 128.05C81.2499 125.813 79.4756 124 77.287 124C75.0984 124 73.3242 125.813 73.3242 128.05C73.3242 130.287 75.0984 132.1 77.287 132.1Z" fill="#3F3D56"/>
<path d="M90.9765 132.1C93.1651 132.1 94.9393 130.287 94.9393 128.05C94.9393 125.813 93.1651 124 90.9765 124C88.7879 124 87.0137 125.813 87.0137 128.05C87.0137 130.287 88.7879 132.1 90.9765 132.1Z" fill="#3F3D56"/>
<path d="M104.666 132.1C106.855 132.1 108.629 130.287 108.629 128.05C108.629 125.813 106.855 124 104.666 124C102.477 124 100.703 125.813 100.703 128.05C100.703 130.287 102.477 132.1 104.666 132.1Z" fill="#3F3D56"/>
<path d="M227.507 125.002H217.783C217.591 125.006 217.408 125.086 217.274 125.223C217.14 125.361 217.064 125.545 217.064 125.738C217.064 125.93 217.14 126.114 217.274 126.252C217.408 126.389 217.591 126.469 217.783 126.473H227.507C227.7 126.471 227.885 126.392 228.02 126.254C228.156 126.117 228.232 125.931 228.232 125.738C228.232 125.544 228.156 125.359 228.02 125.221C227.885 125.083 227.7 125.005 227.507 125.002Z" fill="#3F3D56"/>
<path d="M227.507 127.765H217.784C217.592 127.769 217.409 127.848 217.274 127.986C217.14 128.123 217.064 128.308 217.064 128.5C217.064 128.693 217.14 128.877 217.274 129.015C217.409 129.152 217.592 129.232 217.784 129.236H227.507C227.701 129.234 227.886 129.155 228.022 129.017C228.158 128.88 228.235 128.694 228.235 128.5C228.235 128.307 228.158 128.121 228.022 127.983C227.886 127.846 227.701 127.767 227.507 127.765V127.765Z" fill="#3F3D56"/>
<path d="M227.507 130.527H217.783C217.591 130.532 217.408 130.611 217.274 130.749C217.14 130.886 217.064 131.071 217.064 131.263C217.064 131.455 217.14 131.64 217.274 131.777C217.408 131.915 217.591 131.994 217.783 131.999H227.507C227.7 131.996 227.885 131.917 228.02 131.78C228.156 131.642 228.232 131.456 228.232 131.263C228.232 131.07 228.156 130.884 228.02 130.746C227.885 130.609 227.7 130.53 227.507 130.527V130.527Z" fill="#3F3D56"/>
<path d="M461.915 293.678C462.208 294.532 462.765 295.271 463.505 295.79C464.245 296.308 465.13 296.578 466.033 296.562L483.675 296.108C484.585 296.09 485.465 295.779 486.183 295.22C486.901 294.661 487.418 293.885 487.659 293.007L490.155 266.318C491.041 266.719 492.005 266.917 492.978 266.898C493.822 266.876 494.655 266.689 495.427 266.346C496.199 266.004 496.896 265.512 497.479 264.9C498.061 264.288 498.517 263.567 498.82 262.779C499.124 261.991 499.269 261.15 499.248 260.306C499.227 259.461 499.04 258.629 498.697 257.857C498.354 257.085 497.862 256.388 497.25 255.806C496.638 255.224 495.917 254.768 495.128 254.465C494.34 254.161 493.499 254.016 492.655 254.037C492.266 254.036 491.878 254.076 491.498 254.157C491.085 253.71 490.583 253.355 490.024 253.114C489.465 252.872 488.861 252.751 488.252 252.757L461.114 253.458C460.889 253.466 460.665 253.494 460.444 253.541C459.849 253.652 459.285 253.889 458.789 254.236C458.293 254.583 457.877 255.033 457.57 255.554C457.262 256.075 457.07 256.657 457.006 257.258C456.942 257.86 457.008 258.469 457.199 259.043L461.915 293.678ZM490.667 264.506L492.444 258.146C492.646 257.411 492.651 256.636 492.457 255.899C492.544 255.899 492.62 255.858 492.706 255.858C493.924 255.832 495.102 256.291 495.983 257.133C496.863 257.975 497.373 259.132 497.402 260.35C497.43 261.568 496.975 262.747 496.135 263.629C495.295 264.512 494.139 265.025 492.921 265.057C492.134 265.081 491.354 264.891 490.667 264.506Z" fill="#2F2E41"/>
<path d="M460.445 253.541C461.023 256.846 467.524 259.169 475.34 258.765C482.528 258.434 488.405 255.911 489.482 252.921C489.083 252.803 488.669 252.748 488.253 252.757L461.115 253.457C460.89 253.466 460.666 253.494 460.445 253.541V253.541Z" fill="#3F3D56"/>
<path d="M476.772 279.012C476.807 279.003 476.841 278.988 476.872 278.968L480.704 276.461C480.75 276.431 480.788 276.389 480.814 276.341C480.841 276.292 480.855 276.238 480.855 276.183C480.855 276.127 480.841 276.073 480.815 276.024C480.788 275.976 480.75 275.934 480.704 275.904L476.722 273.296C476.685 273.272 476.644 273.256 476.601 273.247C476.558 273.239 476.514 273.239 476.471 273.248C476.428 273.257 476.387 273.274 476.351 273.299C476.315 273.323 476.284 273.355 476.26 273.392C476.236 273.428 476.219 273.469 476.211 273.512C476.203 273.555 476.203 273.6 476.212 273.642C476.221 273.685 476.239 273.726 476.263 273.762C476.288 273.798 476.32 273.829 476.357 273.853L479.914 276.182L476.508 278.411C476.442 278.454 476.393 278.519 476.371 278.595C476.348 278.67 476.353 278.751 476.385 278.823C476.417 278.895 476.473 278.954 476.544 278.989C476.615 279.023 476.695 279.032 476.772 279.012H476.772Z" fill="#0066FF"/>
<path d="M470.721 279.291C470.786 279.274 470.844 279.239 470.888 279.19C470.932 279.14 470.961 279.079 470.97 279.013C470.979 278.948 470.968 278.881 470.939 278.821C470.909 278.762 470.863 278.712 470.805 278.679L467.274 276.655L470.687 274.12C470.722 274.094 470.752 274.061 470.774 274.024C470.797 273.986 470.812 273.945 470.818 273.902C470.824 273.858 470.822 273.814 470.811 273.772C470.801 273.73 470.782 273.69 470.756 273.655C470.73 273.62 470.697 273.59 470.66 273.568C470.622 273.545 470.581 273.53 470.537 273.524C470.494 273.518 470.45 273.52 470.408 273.531C470.365 273.541 470.325 273.56 470.29 273.586L466.469 276.424C466.424 276.457 466.389 276.501 466.365 276.551C466.342 276.601 466.331 276.656 466.335 276.711C466.338 276.766 466.355 276.82 466.384 276.867C466.413 276.913 466.453 276.952 466.501 276.98L470.474 279.257C470.549 279.3 470.638 279.312 470.721 279.291V279.291Z" fill="#0066FF"/>
<path d="M476.391 281.209C476.423 281.201 476.454 281.188 476.482 281.171C476.519 281.148 476.552 281.118 476.578 281.083C476.604 281.048 476.622 281.008 476.633 280.965C476.643 280.923 476.645 280.879 476.638 280.835C476.632 280.792 476.616 280.751 476.594 280.713L471.162 271.786C471.116 271.711 471.042 271.657 470.956 271.636C470.871 271.616 470.78 271.63 470.705 271.676C470.629 271.722 470.575 271.795 470.554 271.881C470.533 271.967 470.548 272.057 470.593 272.133L476.025 281.06C476.062 281.121 476.117 281.168 476.183 281.195C476.249 281.222 476.322 281.227 476.391 281.209Z" fill="#0066FF"/>
<path d="M171.047 173.654H141.617C140.417 173.654 139.443 174.627 139.443 175.828V178.702C139.443 179.902 140.417 180.875 141.617 180.875H171.047C172.248 180.875 173.221 179.902 173.221 178.702V175.828C173.221 174.627 172.248 173.654 171.047 173.654Z" fill="#0066FF"/>
<path d="M188.202 188.097H124.463C123.262 188.097 122.289 189.07 122.289 190.27V193.144C122.289 194.345 123.262 195.318 124.463 195.318H188.202C189.402 195.318 190.376 194.345 190.376 193.144V190.27C190.376 189.07 189.402 188.097 188.202 188.097Z" fill="#E6E6E6"/>
<path d="M188.202 202.538H124.463C123.262 202.538 122.289 203.511 122.289 204.711V207.586C122.289 208.786 123.262 209.759 124.463 209.759H188.202C189.402 209.759 190.376 208.786 190.376 207.586V204.711C190.376 203.511 189.402 202.538 188.202 202.538Z" fill="#E6E6E6"/>
<path d="M193.605 250.898L193.75 251.354L193.757 251.369L198.103 264.577L203.102 279.797L212.507 308.4L212.598 312.843V312.858L213.297 348.601L211.36 353.446L213.54 361.391C213.54 361.391 212.538 349.382 207.159 356.278C204.112 360.197 200.549 364.208 197.624 367.967C201.886 369.691 206.217 371.251 210.616 372.646C211.565 372.949 212.522 373.238 213.48 373.527C213.685 373.587 213.89 373.648 214.095 373.709C228.676 378.02 243.751 380.442 258.949 380.917C259.739 380.939 260.514 380.955 261.266 380.97C261.532 380.977 261.79 380.985 262.049 380.985C262.899 380.993 263.743 381 264.594 381C266.311 381 268.02 380.975 269.722 380.924C282.317 380.569 294.84 378.876 307.077 375.874C306.993 370.823 306.766 364.921 306.439 358.618C306.287 355.526 302.876 352.177 302.671 348.942C302.526 346.511 305.588 344.225 305.428 341.757C304.395 326.559 303.104 332.393 302.146 321.631C302.048 320.575 301.957 319.565 301.873 318.6C301.258 311.689 300.832 307.367 300.832 307.367L304.919 281.612L311.339 241.176L310.845 240.364L310.291 240.09L276.43 223.336L274.591 218.627C274.056 217.27 273.126 216.105 271.923 215.28C270.719 214.456 269.296 214.011 267.838 214.001L245.532 213.91C244.375 213.905 243.233 214.176 242.201 214.7C241.169 215.225 240.277 215.987 239.599 216.925L233.559 225.288L193.605 250.898Z" fill="#3F3D56"/>
<path d="M217.65 302.035L212.598 312.843L209.149 320.225L203.215 351.282L200.245 354.433L197.7 343.275L171.062 349.188C170.189 344.335 170.828 349.352 170.289 344.028C170.441 343.876 170.601 343.724 170.76 343.572C171.186 343.178 171.543 342.805 171.535 342.448C171.231 324.084 172.143 292.83 179.755 273.896C180.947 270.804 182.519 267.873 184.435 265.169C184.587 264.964 184.731 264.759 184.876 264.554C188.386 259.64 190.604 254.802 193.749 251.361V251.354C193.769 251.338 193.787 251.32 193.802 251.3C193.814 251.295 193.824 251.287 193.833 251.278L215.439 239.824L216.366 265.86L217.027 284.574L217.65 302.035Z" fill="#3F3D56"/>
<path d="M295.559 305.105L301.869 318.604L304.072 323.305L310.004 354.358L312.964 357.502L315.515 346.347L316.714 346.101L338.33 341.626L344.631 361.63C346.051 359.264 346.61 356.481 346.215 353.751C345.819 351.021 344.492 348.511 342.459 346.646C342.029 346.257 341.67 345.878 341.68 345.52C342.039 323.919 340.717 284.478 328.782 268.245C324.992 263.093 322.717 257.962 319.408 254.377C319.398 254.367 319.398 254.357 319.388 254.357L311.335 241.175L310.844 240.366L310.291 240.09L295.559 305.105Z" fill="#3F3D56"/>
<path d="M257.329 207.564C273.718 207.564 287.003 194.282 287.003 177.898C287.003 161.513 273.718 148.231 257.329 148.231C240.94 148.231 227.654 161.513 227.654 177.898C227.654 194.282 240.94 207.564 257.329 207.564Z" fill="#FFB6B6"/>
<path d="M297.438 157.176C297.208 156.931 296.931 156.734 296.623 156.598C296.315 156.462 295.983 156.389 295.647 156.384L296.093 155.146C296.238 154.756 296.278 154.334 296.207 153.924C296.136 153.513 295.957 153.13 295.688 152.811C295.42 152.493 295.072 152.251 294.68 152.112C294.287 151.972 293.865 151.939 293.456 152.017L291.831 152.33L291.984 151.244C292.042 150.84 291.995 150.428 291.846 150.047C291.697 149.667 291.451 149.332 291.133 149.076C290.816 148.819 290.436 148.649 290.033 148.584C289.63 148.518 289.217 148.559 288.834 148.701C288.485 148.838 288.111 148.895 287.737 148.869C287.364 148.842 287.001 148.733 286.676 148.548C286.349 148.369 286.065 148.12 285.845 147.82C285.624 147.52 285.471 147.175 285.397 146.81L284.831 144.08L284.771 143.934C282.014 139.34 276.713 135.998 270.226 134.773C264.452 133.674 258.532 134.234 252.825 134.759C250.56 134.973 248.003 135.212 245.872 136.517C244.06 137.636 242.529 139.873 242.842 142.13C237.214 140.405 231.181 143.847 228.19 148.188C224.647 153.355 224.068 159.826 223.975 164.886C223.722 176.857 226.192 186.651 231.3 194.001C231.673 194.534 231.767 195.645 232.506 196.018L232.353 195.772C233.178 196.185 234.018 196.85 233.705 197.563C232.805 199.613 238.779 204.147 242.988 205.645C250.667 208.382 260.876 208.149 268.055 207.163L268.308 205.466C270.899 205.113 272.724 204.44 273.237 203.388C274.142 202.616 274.915 201.924 275.587 201.285L275.594 201.278C275.607 201.265 275.634 201.245 275.647 201.231C278.891 198.122 279.643 196.351 279.983 193.655C280.309 191.012 279.73 188.328 279.137 185.912C291.617 187.842 274.222 172.623 285.85 169.68C285.983 169.639 286.119 169.605 286.256 169.58C286.596 169.5 286.936 169.42 287.262 169.327C288.835 168.9 290.341 168.257 291.737 167.416C294.987 165.439 296.059 162.816 297.738 159.86C297.98 159.439 298.081 158.951 298.028 158.469C297.974 157.986 297.767 157.534 297.438 157.176V157.176Z" fill="#2F2E41"/>
<path d="M362.284 307.217C362.277 308.383 362.264 310.014 362.21 312.031C362.204 312.311 362.197 312.597 362.19 312.89C362.104 316.598 362.017 319.707 361.877 323.163C361.871 323.403 361.864 323.636 361.851 323.875C361.664 328.696 361.371 334.308 360.865 343.196C359.926 359.615 358.288 345.453 356.643 351.212C356.563 351.499 356.476 351.838 356.396 352.238C356.147 353.687 355.727 355.102 355.144 356.452C354.272 356.971 353.373 357.471 352.487 357.97C349.963 359.375 347.399 360.726 344.815 362.011C343.363 362.73 341.905 363.436 340.44 364.115C340.207 364.222 339.98 364.328 339.754 364.428C332.251 367.898 324.519 370.847 316.611 373.257C315.066 373.723 313.528 374.175 311.97 374.595C310.345 375.047 308.72 375.474 307.075 375.873C294.838 378.876 282.316 380.57 269.72 380.926C268.022 380.98 266.31 381 264.592 381C263.74 381 262.901 380.993 262.048 380.986C261.789 380.986 261.529 380.98 261.269 380.973C260.517 380.953 259.737 380.94 258.951 380.92C243.753 380.446 228.679 378.022 214.098 373.709L213.479 373.529C212.52 373.237 211.568 372.95 210.615 372.644C206.22 371.252 201.889 369.695 197.622 367.97C194.366 366.659 191.147 365.252 187.966 363.749C187.936 363.741 187.909 363.728 187.886 363.709C187.22 363.403 186.547 363.083 185.881 362.757C185.794 362.711 185.701 362.664 185.608 362.617C183.124 361.406 180.666 360.136 178.236 358.809C176.191 354.115 173.314 353.216 171.529 349.089C171.01 347.862 170.634 346.58 170.411 345.267C170.411 345.254 170.404 345.24 170.404 345.22C170.59 347.697 169.611 340.826 170.397 345.194C170.391 345.114 170.384 345.027 170.377 344.927C170.357 344.688 170.331 344.395 170.291 344.029C168.006 321.731 168.153 296.232 167.161 275.22C167.094 273.862 167.025 272.561 166.954 271.318C166.934 270.906 166.908 270.499 166.881 270.1C166.927 269.98 166.981 269.854 167.041 269.734C167.053 269.699 167.069 269.666 167.087 269.634C167.107 269.593 167.129 269.553 167.154 269.514C167.167 269.494 167.187 269.467 167.201 269.447C167.21 269.425 167.221 269.402 167.234 269.381C167.294 269.288 167.36 269.188 167.434 269.095C167.467 269.055 167.494 269.021 167.527 268.988C167.55 268.954 167.577 268.923 167.607 268.895C167.627 268.863 167.652 268.834 167.68 268.808C167.707 268.782 167.733 268.748 167.767 268.715C167.781 268.694 167.799 268.676 167.82 268.662C167.873 268.601 167.93 268.546 167.993 268.495C168.231 268.277 168.484 268.077 168.752 267.896C168.845 267.836 168.945 267.776 169.039 267.71C169.71 267.308 170.416 266.97 171.15 266.698C171.403 266.605 171.656 266.518 171.929 266.425C172.029 266.398 172.122 266.365 172.222 266.332C172.368 266.285 172.515 266.238 172.668 266.205C173.427 265.979 174.246 265.786 175.132 265.606C175.239 265.586 175.352 265.566 175.465 265.539C175.625 265.506 175.792 265.479 175.958 265.453C176.184 265.413 176.418 265.373 176.651 265.333C178.629 265.02 180.873 264.787 183.35 264.634C183.583 264.621 183.817 264.607 184.05 264.594C184.323 264.581 184.596 264.567 184.875 264.554C185.109 264.541 185.348 264.534 185.588 264.527C185.821 264.514 186.061 264.507 186.307 264.501C186.98 264.481 187.673 264.461 188.378 264.447C190.39 264.408 192.507 264.421 194.732 264.467C195.764 264.494 196.816 264.521 197.895 264.567C197.968 264.567 198.035 264.574 198.102 264.574C199.041 264.607 199.986 264.647 200.959 264.7C201.638 264.734 202.324 264.767 203.01 264.807C203.656 264.847 204.308 264.887 204.968 264.934C205.481 264.96 205.993 265 206.513 265.033C206.952 265.067 207.392 265.1 207.831 265.127L208.431 265.167C208.757 265.193 209.083 265.213 209.416 265.246C210.149 265.306 210.882 265.366 211.627 265.426C212.367 265.493 213.119 265.559 213.872 265.626C214.624 265.693 215.384 265.766 216.143 265.839C216.223 265.846 216.296 265.852 216.369 265.859C217.062 265.932 217.754 265.999 218.454 266.072C218.614 266.085 218.78 266.099 218.94 266.119C219.607 266.186 220.286 266.264 220.959 266.335C221.166 266.358 221.371 266.379 221.578 266.402C222.105 266.459 222.625 266.509 223.155 266.571C223.855 266.651 224.567 266.724 225.26 266.818C225.799 266.878 226.339 266.938 226.878 267.004C227.724 267.104 228.583 267.21 229.442 267.324C229.768 267.364 230.095 267.404 230.421 267.45C232.872 267.756 235.349 268.096 237.867 268.449C241.683 268.988 245.559 269.574 249.461 270.207C253.371 270.839 257.302 271.507 261.256 272.211C262.255 272.39 263.254 272.57 264.259 272.756C264.712 272.843 265.165 272.929 265.618 273.016C266.39 273.156 267.163 273.302 267.935 273.449C268.708 273.595 269.48 273.742 270.253 273.895C271.172 274.075 272.098 274.254 273.017 274.434C279.07 275.633 285.091 276.911 290.965 278.249C291.93 278.469 292.896 278.695 293.855 278.915C295.773 279.361 297.673 279.814 299.556 280.273C300.075 280.393 300.588 280.519 301.101 280.646C302.379 280.966 303.658 281.285 304.917 281.611L305.137 281.671C306.062 281.898 306.968 282.131 307.874 282.37C310.011 282.93 312.114 283.496 314.18 284.068C315.552 284.448 316.909 284.832 318.25 285.22C320.254 285.799 322.219 286.385 324.13 286.978C324.603 287.124 325.076 287.27 325.542 287.41C326.94 287.843 328.319 288.283 329.658 288.722C330.723 289.068 331.762 289.421 332.788 289.774C333.813 290.127 334.819 290.48 335.805 290.832C336.437 291.059 337.063 291.299 337.689 291.525C338.588 291.858 339.474 292.191 340.34 292.524C340.606 292.623 340.866 292.73 341.126 292.83C341.292 292.903 341.452 292.963 341.612 293.03C341.925 293.156 342.245 293.276 342.551 293.402C342.864 293.522 343.17 293.649 343.477 293.782C343.776 293.902 344.083 294.028 344.376 294.155C344.675 294.275 344.968 294.401 345.261 294.534C345.508 294.634 345.747 294.741 345.981 294.847C346.453 295.054 346.926 295.26 347.386 295.473C347.612 295.58 347.839 295.679 348.065 295.786L348.585 296.026C348.658 296.066 348.731 296.099 348.804 296.132C348.971 296.212 349.144 296.299 349.31 296.378C349.697 296.558 350.076 296.751 350.449 296.931C350.949 297.184 351.435 297.437 351.901 297.683C352.374 297.936 352.833 298.189 353.273 298.436C353.346 298.476 353.413 298.516 353.486 298.556C353.586 298.609 353.686 298.669 353.786 298.722C354.125 298.915 354.452 299.115 354.778 299.308C355.417 299.701 356.023 300.087 356.59 300.473C356.716 300.56 356.836 300.646 356.962 300.726C357.382 301.026 357.782 301.319 358.155 301.618C358.155 301.625 358.155 301.625 358.161 301.625C358.288 301.718 358.408 301.818 358.528 301.911C358.627 302.004 358.734 302.084 358.834 302.177C359.18 302.477 359.5 302.763 359.793 303.056C359.891 303.147 359.984 303.242 360.073 303.343C360.111 303.375 360.147 303.41 360.179 303.449C360.312 303.582 360.432 303.715 360.545 303.848C360.563 303.867 360.579 303.887 360.592 303.908C360.752 304.095 360.898 304.281 361.038 304.468C361.105 304.561 361.178 304.654 361.238 304.747C361.318 304.86 361.398 304.98 361.464 305.094C361.524 305.187 361.578 305.287 361.631 305.38C361.772 305.62 361.893 305.871 361.991 306.132C362.065 306.309 362.126 306.491 362.17 306.678C362.221 306.855 362.259 307.035 362.284 307.217V307.217Z" fill="#2F2E41"/>
<path opacity="0.2" d="M362.284 307.217C362.278 308.382 362.265 310.013 362.211 312.031C362.205 312.31 362.191 312.597 362.185 312.89C362.118 315.719 362.018 319.215 361.878 323.163C361.872 323.402 361.865 323.635 361.852 323.875C361.665 328.695 361.372 334.308 360.866 343.196C359.927 359.614 358.289 345.453 356.644 351.212C352.075 348.403 347.067 345.46 341.713 342.437C340.747 341.891 339.772 341.343 338.789 340.793C328.08 334.821 316.119 328.562 303.632 322.364C303.14 322.117 302.64 321.871 302.147 321.631C273.544 307.497 242.323 293.748 217.029 284.574C212.148 282.803 207.486 281.205 203.104 279.8C193.873 276.851 185.895 274.787 179.755 273.895C173.362 272.963 168.946 273.295 167.161 275.22C167.095 273.861 167.026 272.561 166.955 271.318C166.928 270.905 166.902 270.499 166.875 270.1C166.916 269.99 166.97 269.886 167.021 269.78C167.029 269.765 167.034 269.749 167.041 269.734C167.054 269.699 167.07 269.666 167.088 269.634C167.108 269.592 167.13 269.552 167.155 269.514C167.176 269.467 167.203 269.422 167.235 269.381C167.295 269.287 167.361 269.188 167.434 269.094C167.488 269.025 167.546 268.958 167.608 268.895C167.628 268.863 167.653 268.833 167.681 268.808C167.707 268.781 167.734 268.748 167.767 268.715C167.782 268.694 167.8 268.676 167.821 268.662C167.873 268.601 167.931 268.545 167.994 268.495C168.231 268.277 168.485 268.076 168.753 267.896C168.846 267.836 168.946 267.776 169.039 267.71C169.711 267.308 170.417 266.969 171.151 266.698C171.404 266.604 171.657 266.518 171.93 266.425C172.03 266.398 172.123 266.365 172.223 266.331C172.369 266.285 172.516 266.238 172.669 266.205C173.428 265.979 174.247 265.785 175.133 265.606C175.399 265.552 175.679 265.499 175.959 265.453C176.185 265.413 176.418 265.373 176.651 265.333C178.629 265.02 180.874 264.787 183.351 264.634C183.584 264.62 183.817 264.607 184.05 264.594C184.323 264.58 184.597 264.567 184.876 264.554C185.109 264.54 185.349 264.534 185.589 264.527C185.822 264.514 186.062 264.507 186.308 264.5C186.981 264.481 187.673 264.461 188.379 264.447C190.39 264.414 192.508 264.427 194.733 264.474C195.765 264.494 196.817 264.527 197.896 264.574C197.963 264.574 198.036 264.58 198.102 264.58C199.041 264.607 199.994 264.654 200.959 264.7C201.639 264.733 202.325 264.767 203.011 264.807C203.657 264.847 204.309 264.887 204.969 264.933C205.481 264.96 205.994 265 206.514 265.033C206.953 265.066 207.393 265.1 207.832 265.126C208.358 265.166 208.884 265.206 209.417 265.246C210.15 265.306 210.882 265.366 211.628 265.426C212.368 265.492 213.12 265.559 213.873 265.626C214.625 265.692 215.384 265.765 216.144 265.839C216.223 265.845 216.297 265.852 216.37 265.859C217.063 265.932 217.755 265.998 218.455 266.072C222.33 266.465 226.32 266.924 230.422 267.45C232.873 267.763 235.355 268.098 237.868 268.455C241.684 268.994 245.56 269.58 249.462 270.206C253.371 270.839 257.303 271.507 261.257 272.21C262.255 272.39 263.254 272.57 264.26 272.756C265.485 272.983 266.711 273.213 267.936 273.449C268.709 273.595 269.481 273.742 270.254 273.895C271.173 274.074 272.099 274.254 273.018 274.434C279.071 275.632 285.092 276.911 290.966 278.249C291.931 278.469 292.897 278.695 293.856 278.915C295.774 279.361 297.674 279.813 299.557 280.273C300.076 280.399 300.589 280.526 301.102 280.652C302.387 280.972 303.659 281.292 304.918 281.611V281.618C304.991 281.631 305.064 281.651 305.137 281.671C306.056 281.904 306.969 282.137 307.875 282.377C310.012 282.936 312.115 283.5 314.181 284.068C315.553 284.454 316.912 284.834 318.25 285.22C320.255 285.806 322.22 286.391 324.131 286.977C324.604 287.124 325.077 287.27 325.543 287.41C326.941 287.85 328.313 288.287 329.658 288.722C330.724 289.068 331.763 289.421 332.789 289.774C333.814 290.126 334.82 290.479 335.805 290.832C336.445 291.059 337.071 291.292 337.69 291.518C338.596 291.851 339.475 292.184 340.341 292.523C340.607 292.623 340.867 292.73 341.127 292.83C341.613 293.016 342.086 293.209 342.552 293.402C342.865 293.522 343.171 293.648 343.477 293.782C343.777 293.901 344.083 294.028 344.376 294.154C344.676 294.274 344.969 294.401 345.262 294.534C345.509 294.634 345.748 294.74 345.981 294.847C346.454 295.053 346.927 295.26 347.387 295.473C347.613 295.579 347.84 295.679 348.066 295.786L348.585 296.025C348.659 296.065 348.732 296.099 348.805 296.132C349.371 296.398 349.917 296.664 350.45 296.931C350.95 297.184 351.436 297.437 351.902 297.683C352.455 297.976 352.981 298.262 353.487 298.555C353.587 298.609 353.687 298.668 353.787 298.722C354.126 298.915 354.453 299.115 354.779 299.308C355.418 299.7 356.024 300.087 356.59 300.473C357.15 300.859 357.669 301.238 358.155 301.618C358.155 301.625 358.155 301.625 358.162 301.625C358.395 301.811 358.622 301.997 358.835 302.177C359.181 302.477 359.501 302.763 359.794 303.056C359.892 303.146 359.985 303.242 360.073 303.342C360.112 303.374 360.148 303.41 360.18 303.449C360.32 303.602 360.46 303.755 360.593 303.908C360.753 304.095 360.899 304.281 361.039 304.467C361.106 304.561 361.179 304.654 361.239 304.747C361.319 304.86 361.399 304.98 361.465 305.093C361.525 305.186 361.579 305.286 361.632 305.38C361.773 305.62 361.893 305.871 361.991 306.132C362.064 306.309 362.124 306.492 362.171 306.678C362.222 306.855 362.26 307.035 362.284 307.217V307.217Z" fill="black"/>
</g>
<defs>
<clipPath id="clip0_1059_97">
<rect width="524" height="381" fill="white"/>
</clipPath>
</defs>
</svg>
