<svg viewBox="0 0 68 123" fill="none" xmlns="http://www.w3.org/2000/svg">
<path d="M8.82591 121.288C15.6126 124.146 23.4309 120.961 26.2885 114.174C29.146 107.387 25.9608 99.5691 19.1741 96.7115C12.3874 93.854 4.5691 97.0392 1.71153 103.826C-1.14604 110.613 2.03917 118.431 8.82591 121.288ZM48.8259 26.2885C55.6126 29.146 63.4309 25.9608 66.2885 19.1741C69.146 12.3874 65.9608 4.5691 59.1741 1.71153C52.3874 -1.14604 44.5691 2.03917 41.7115 8.82591C38.854 15.6126 42.0392 23.4309 48.8259 26.2885ZM16.5191 109.459C17.0549 108.187 16.4577 106.721 15.1852 106.185C13.9127 105.649 12.4468 106.247 11.911 107.519L16.5191 109.459ZM24.8142 76.8739C24.2784 78.1465 24.8756 79.6124 26.1481 80.1482C27.4207 80.684 28.8866 80.0867 29.4224 78.8142L24.8142 76.8739ZM29.8525 77.7927C30.3883 76.5202 29.791 75.0543 28.5185 74.5185C27.246 73.9827 25.7801 74.5799 25.2443 75.8524L29.8525 77.7927ZM38.1475 45.2073C37.6117 46.4798 38.209 47.9457 39.4815 48.4815C40.754 49.0173 42.2199 48.4201 42.7557 47.1476L38.1475 45.2073ZM43.1858 46.1261C43.7216 44.8535 43.1244 43.3876 41.8519 42.8518C40.5793 42.316 39.1134 42.9133 38.5776 44.1858L43.1858 46.1261ZM51.4809 13.5406C50.9451 14.8131 51.5423 16.2791 52.8148 16.8148C54.0873 17.3506 55.5532 16.7534 56.089 15.4809L51.4809 13.5406ZM16.3041 109.97L16.5191 109.459L11.911 107.519L11.6959 108.03L16.3041 109.97ZM29.4224 78.8142L29.8525 77.7927L25.2443 75.8524L24.8142 76.8739L29.4224 78.8142ZM42.7557 47.1476L43.1858 46.1261L38.5776 44.1858L38.1475 45.2073L42.7557 47.1476ZM56.089 15.4809L56.3041 14.9701L51.6959 13.0299L51.4809 13.5406L56.089 15.4809Z" fill="#0066FF"/>
</svg>
