<svg viewBox="0 0 142 126" fill="none" xmlns="http://www.w3.org/2000/svg">
<g clip-path="url(#clip0_1103_916)">
<path d="M16.2873 126L16.1637 125.955C11.9776 124.382 8.69789 121.054 7.19595 116.856C6.78902 115.689 6.53117 114.476 6.42851 113.245L6.41843 113.127L6.53488 113.148C7.92508 113.396 9.38449 113.534 10.0347 113.588L6.38672 111.183L6.39331 111.058C6.45011 109.884 7.21821 108.862 8.33319 108.478C9.45881 108.064 10.7241 108.374 11.5289 109.26C11.8915 109.653 12.275 110.047 12.6457 110.429C13.9198 111.741 15.2374 113.097 16.0705 114.699C17.3234 117.166 17.3914 120.065 16.2556 122.588L16.2873 126H16.2873Z" fill="#F2F2F2"/>
<path d="M90.1006 123.67L90.0991 123.657C89.9378 120.09 89.2809 116.563 88.147 113.176L88.146 113.17C88.0798 112.822 88.099 112.464 88.202 112.125C88.5186 111.154 89.5006 110.559 90.5119 110.726C91.5565 110.922 92.6368 110.738 93.5571 110.208C94.1416 109.871 94.8508 109.824 95.4748 110.082C96.0633 110.321 96.5035 110.823 96.6617 111.436C96.6741 111.484 96.6849 111.533 96.6941 111.583C96.7273 115.166 97.3881 118.717 98.6467 122.074L98.6475 122.078C98.7791 122.771 98.5691 123.485 98.0826 123.998C97.6527 124.433 97.0502 124.654 96.4399 124.6C95.3445 124.525 94.2179 124.746 92.9958 125.277C92.5689 125.466 92.0888 125.499 91.6396 125.371C90.8451 125.139 90.2497 124.481 90.1006 123.67V123.67Z" fill="#0066FF"/>
<path d="M55.084 74.674V121.512H88.0225V74.674C88.0237 73.9824 87.5718 73.3711 86.9085 73.1669C86.7563 73.1168 86.5967 73.0921 86.4364 73.0938H56.6747C55.7979 73.0921 55.0857 73.7989 55.084 74.6724V74.674V74.674ZM67.9385 90.7678C67.9564 88.8332 69.5451 87.2794 71.4871 87.2972C73.4038 87.3148 74.9533 88.8584 74.9709 90.7678V96.2024C74.9617 98.137 73.38 99.6978 71.4381 99.6887C69.5091 99.6796 67.9476 98.1241 67.9385 96.2024V90.7678V90.7678Z" fill="#F2F2F2"/>
<path d="M54.9824 120.014V124.53C54.984 125.017 55.3785 125.412 55.8672 125.416H87.2379C87.7273 125.414 88.1228 125.018 88.1227 124.53V120.014H54.9824V120.014Z" fill="#E6E6E6"/>
<path d="M3.26562 4.10568V89.6258C3.26743 91.8951 5.11361 93.7342 7.39154 93.736H134.607C136.885 93.7342 138.731 91.8951 138.733 89.6258V4.10568C138.728 1.83864 136.883 0.00287584 134.607 0H7.39155C5.11585 0.00288713 3.27105 1.83864 3.26563 4.10568H3.26562Z" fill="#E6E6E6"/>
<path d="M133.546 2.96875H8.45311C7.23459 2.97139 6.24816 3.95613 6.24805 5.17001V88.5711C6.25014 89.7834 7.23615 90.7657 8.45311 90.7678H133.546C134.763 90.7657 135.749 89.7834 135.751 88.5711V5.17001C135.751 3.95612 134.765 2.97139 133.546 2.96875V2.96875ZM101.991 62.2215C101.617 62.9574 100.859 63.4205 100.031 63.4185L100.018 63.4176C98.8187 63.2512 97.6151 63.1414 96.407 63.0884C96.5945 63.2222 96.7596 63.3848 96.896 63.5702C97.2466 64.0706 97.3543 64.701 97.1897 65.2888C96.9165 66.3482 96.9294 67.4921 97.2296 68.7858C97.3385 69.2384 97.284 69.7148 97.0758 70.1315C96.7019 70.8673 95.9436 71.3305 95.1157 71.3285L95.1026 71.3276C92.2387 70.9302 89.3392 70.8533 86.4582 71.0982C86.4468 71.1705 86.4325 71.243 86.4138 71.3154C86.1405 72.3748 86.1535 73.5187 86.4537 74.8125C86.5626 75.2651 86.5081 75.7414 86.2999 76.1581C85.926 76.894 85.1677 77.3571 84.3398 77.3551L84.3266 77.3542C81.3854 76.9463 78.4069 76.8765 75.4497 77.146C75.4273 77.8817 75.504 78.6171 75.6777 79.3324C75.7866 79.7851 75.7322 80.2614 75.5239 80.6781C75.1501 81.414 74.3917 81.8771 73.5638 81.8751L73.5507 81.8742C70.001 81.3815 66.3998 81.3815 62.8501 81.8742H62.8444C62.489 81.8756 62.1386 81.7913 61.8229 81.6287C60.9221 81.1413 60.5144 80.071 60.864 79.111C60.9712 78.8088 61.0509 78.4976 61.1021 78.1811C57.849 77.8076 54.5614 77.8462 51.318 78.2959H51.3123C50.9569 78.2972 50.6064 78.213 50.2908 78.0504C49.39 77.563 48.9823 76.4927 49.3318 75.5327C49.7154 74.5452 49.7311 73.4535 49.3762 72.4555C49.2089 71.9875 49.2089 71.4763 49.376 71.0083C46.9309 70.8842 44.4794 70.9911 42.0545 71.3276H42.0488C41.6934 71.3289 41.3429 71.2447 41.0273 71.0821C40.1265 70.5947 39.7188 69.5244 40.0683 68.5644C40.4519 67.5769 40.4676 66.4852 40.1126 65.4872C39.8859 64.8531 39.9691 64.1499 40.3377 63.5857C40.6809 63.053 41.2569 62.7134 41.8909 62.6703C41.9408 62.667 41.9908 62.6652 42.0414 62.6652C43.2838 62.8816 44.5382 63.0228 45.7977 63.0879C44.9942 62.5618 44.6576 61.5555 44.9837 60.6545C45.3672 59.667 45.3829 58.5753 45.028 57.5772C44.8012 56.9431 44.8845 56.24 45.253 55.6758C45.269 55.6515 45.2876 55.6299 45.3044 55.6065C44.408 55.668 43.5138 55.7607 42.6216 55.8843H42.6159C42.2605 55.8857 41.9101 55.8015 41.5944 55.6388C40.6936 55.1514 40.2859 54.0811 40.6355 53.1212C41.019 52.1337 41.0348 51.042 40.6798 50.0439C40.4531 49.4098 40.5363 48.7067 40.9049 48.1425C41.248 47.6097 41.8241 47.2702 42.4581 47.227C42.5079 47.2237 42.5579 47.222 42.6085 47.222C44.1024 47.4825 45.6134 47.6341 47.1295 47.6754C46.7427 47.1201 46.6477 46.4133 46.8742 45.7762C47.2577 44.7887 47.2735 43.697 46.9185 42.699C46.6918 42.0649 46.775 41.3617 47.1435 40.7975C47.4867 40.2647 48.0628 39.9252 48.6968 39.8821C48.7466 39.8788 48.7966 39.877 48.8472 39.877C50.1114 40.0973 51.3881 40.2396 52.6698 40.3033C52.3945 39.7839 52.3495 39.1735 52.5457 38.6196C52.9293 37.6321 52.945 36.5404 52.59 35.5423C52.3633 34.9082 52.4465 34.2051 52.8151 33.6409C53.1583 33.1081 53.7343 32.7686 54.3683 32.7254C54.4181 32.7221 54.4682 32.7204 54.5188 32.7204C56.0063 32.9798 57.5108 33.1311 59.0204 33.1731C58.8149 32.6894 58.7981 32.1467 58.9735 31.6513C59.357 30.6638 59.3727 29.5721 59.0178 28.574C58.791 27.9399 58.8743 27.2368 59.2428 26.6726C59.586 26.1398 60.1621 25.8003 60.796 25.7571C60.8459 25.7538 60.8959 25.7521 60.9465 25.7521C64.4894 26.3733 68.114 26.3738 71.6571 25.7535H71.6615C71.935 25.8096 72.217 25.8096 72.4905 25.7535H72.4949C76.038 26.3738 79.6625 26.3733 83.2055 25.7521C83.256 25.7521 83.3061 25.7538 83.3559 25.7571C83.9899 25.8003 84.566 26.1398 84.9091 26.6726C85.2777 27.2368 85.3609 27.9399 85.1342 28.574C84.7792 29.5721 84.7949 30.6638 85.1785 31.6513C85.3538 32.1467 85.3371 32.6894 85.1316 33.1731C86.6411 33.1311 88.1456 32.9798 89.6332 32.7204C89.6838 32.7204 89.7338 32.7221 89.7837 32.7254C90.4176 32.7686 90.9937 33.1081 91.3369 33.6409C91.7054 34.2051 91.7887 34.9082 91.5619 35.5423C91.207 36.5404 91.2227 37.6321 91.6062 38.6196C91.8025 39.1735 91.7575 39.7839 91.4821 40.3033C92.7639 40.2396 94.0405 40.0973 95.3047 39.877C95.3553 39.877 95.4054 39.8788 95.4552 39.8821C96.0892 39.9252 96.6652 40.2647 97.0084 40.7975C97.377 41.3617 97.4602 42.0649 97.2335 42.699C96.8785 43.697 96.8942 44.7887 97.2778 45.7762C97.5049 46.4149 97.4089 47.1236 97.0198 47.6794C97.1886 47.8063 97.338 47.9571 97.4631 48.1269C97.8138 48.6274 97.9215 49.2577 97.7569 49.8456C97.4836 50.9049 97.4966 52.0488 97.7967 53.3426C97.9057 53.7952 97.8512 54.2716 97.643 54.6882C97.5668 54.8365 97.474 54.9758 97.3665 55.1034C98.2514 55.0259 99.1342 54.9103 100.015 54.7566H100.019C100.727 54.7542 101.394 55.0902 101.811 55.6602C102.162 56.1607 102.27 56.791 102.105 57.3789C101.832 58.4382 101.845 59.5821 102.145 60.8759C102.254 61.3285 102.199 61.8049 101.991 62.2215L101.991 62.2215Z" fill="white"/>
<path d="M129.489 14.4577H12.4397C12.1826 14.452 11.9788 14.2399 11.9845 13.9838C11.99 13.7356 12.1906 13.5357 12.4397 13.5303H129.489C129.746 13.5359 129.95 13.7481 129.944 14.0042C129.939 14.2523 129.738 14.4522 129.489 14.4577Z" fill="#E6E6E6"/>
<path d="M72.379 79.6535L72.3659 79.6526C68.8162 79.1599 65.215 79.1599 61.6653 79.6526H61.6596C61.3042 79.6539 60.9538 79.5697 60.6381 79.4071C59.7373 78.9197 59.3296 77.8494 59.6792 76.8894C60.0627 75.9019 60.0784 74.8102 59.7235 73.8122C59.4967 73.1781 59.58 72.4749 59.9485 71.9107C60.2917 71.378 60.8678 71.0384 61.5017 70.9953C61.5516 70.992 61.6016 70.9902 61.6522 70.9902C65.1951 71.6115 68.8197 71.6119 72.3628 70.9916H72.3672C73.0755 70.9891 73.7419 71.3252 74.1593 71.8952C74.5099 72.3956 74.6177 73.026 74.453 73.6138C74.1798 74.6732 74.1927 75.8171 74.4929 77.1109C74.6018 77.5635 74.5474 78.0398 74.3391 78.4565C73.9653 79.1924 73.2069 79.6555 72.379 79.6535V79.6535Z" fill="#0066FF"/>
<path d="M83.2948 61.1882L80.4391 58.834C78.2976 59.9522 75.039 64.4165 75.039 64.4165L67.5216 69.8025C66.6188 69.8454 65.9218 70.6092 65.9648 71.5085C66.0078 72.4079 66.7745 73.1022 67.6773 73.0594C68.2632 73.0316 68.7893 72.6936 69.0564 72.1734L79.2704 66.7965L83.2948 61.1882V61.1882Z" fill="#FFB8B8"/>
<path d="M88.1133 52.228C89.7615 53.6185 89.9661 56.0769 88.5702 57.7189C88.4138 57.9029 88.2406 58.072 88.0528 58.2241L86.2368 59.6948C86.2368 59.6948 81.7069 66.191 79.3491 66.9447L73.2958 70.095L70.5664 67.3688L76.0524 62.9149C76.0524 62.9149 78.5757 60.5373 78.8284 58.7969C78.9831 57.731 80.7939 54.8275 82.609 52.674C84.0021 51.0369 86.4636 50.8348 88.107 52.2226L88.1133 52.228V52.228Z" fill="#3F3D56"/>
<path d="M82.2448 122.731L79.6648 122.731L78.4375 112.817L82.2454 112.818L82.2448 122.731Z" fill="#FFB6B6"/>
<path d="M82.3343 125.412L74.4004 125.412V125.312C74.4005 123.613 75.783 122.236 77.4885 122.236H77.4887L78.9379 121.141L81.6418 122.236L82.3344 122.236L82.3343 125.412V125.412Z" fill="#2F2E41"/>
<path d="M101.902 109.203L100.68 111.466L91.334 107.849L93.1373 104.508L101.902 109.203Z" fill="#FFB6B6"/>
<path d="M104.316 110.393L100.558 117.354L100.47 117.307C98.968 116.502 98.405 114.637 99.2125 113.141L99.2126 113.14L98.9304 111.35L101.179 109.496L101.507 108.889L104.316 110.393V110.393Z" fill="#2F2E41"/>
<path d="M77.367 77.3311L75.0898 95.4787L76.2284 101.563L96.7224 110.507L97.861 106.821C92.6224 103.628 87.0225 98.7948 83.494 98.4395C83.494 98.4395 83.2013 95.219 85.7292 93.2314C86.2392 92.8305 86.1276 92.2879 86.3338 91.7962C86.4757 91.458 87.0399 91.1058 87.1844 90.7588C87.3717 90.3092 87.1399 89.8625 87.3282 89.4056C87.4341 89.1487 87.8354 89.1326 87.9406 88.8755C88.1201 88.4369 88.0026 87.7579 88.1775 87.3246C88.5511 86.3988 88.9104 85.4935 89.2384 84.6447C90.2595 82.0029 90.9781 79.9098 90.8873 79.4577C90.6027 78.0399 77.367 77.3311 77.367 77.3311V77.3311Z" fill="#2F2E41"/>
<path d="M76.9745 95.4268L75.7832 103.091L78.7899 118.731H82.7748C84.2065 113.476 84.2803 106.569 82.9172 100.725L76.9745 95.4268V95.4268Z" fill="#2F2E41"/>
<path d="M79.5335 55.1584L81.3705 51.9695L83.3429 50.3933L87.0432 49.8262L88.0712 50.6136C91.7709 56.2467 93.1506 63.0829 91.9237 69.7027L91.6349 71.2609L91.4516 72.25L91.531 73.4323L90.9135 75.1535L90.9985 76.4139L91.0438 77.087L91.0894 77.7626L91.1529 78.7056C91.2667 79.2438 90.6938 79.1729 90.7748 79.6473C90.9171 80.4804 91.5553 81.715 90.5858 81.7189L80.566 79.6473C78.0206 79.6577 75.6507 76.634 78.1084 74.1856L79.5334 55.1584H79.5335Z" fill="#3F3D56"/>
<path d="M84.2249 48.9382C86.9121 48.9382 89.0904 46.7681 89.0904 44.0912C89.0904 41.4142 86.9121 39.2441 84.2249 39.2441C81.5377 39.2441 79.3594 41.4142 79.3594 44.0912C79.3594 46.7681 81.5377 48.9382 84.2249 48.9382Z" fill="#FFB8B8"/>
<path d="M84.3062 48.7998C85.0181 48.8109 85.7297 48.7614 86.4332 48.6518C87.1304 48.5105 88.6903 47.3718 89.1251 46.6866C89.4482 46.1774 89.6548 45.3824 89.7712 44.8051C90.0883 43.2603 89.7331 41.654 88.7937 40.3849C88.6151 40.1224 88.3687 39.9129 88.0805 39.7785C88.0549 39.7685 88.0286 39.7597 88.002 39.7522C87.582 39.6421 87.2046 39.4094 86.9183 39.0841C86.8627 39.0183 86.8025 38.9566 86.7381 38.8994C86.4145 38.6273 86.0308 38.4354 85.6184 38.3393C84.9528 38.1619 83.9896 38.338 82.7555 38.8634C82.1355 39.1273 81.4574 39.0318 80.9358 38.9191C80.8763 38.9076 80.8151 38.9285 80.7751 38.9739C80.5532 39.1815 80.2606 39.2977 79.9562 39.2991C79.7698 39.3073 79.5741 39.5645 79.3377 39.8998C79.2841 39.976 79.2215 40.0648 79.1763 40.1188L79.1702 40.015L79.0648 40.1308C78.5222 40.7266 78.5672 41.6478 79.1652 42.1883C79.326 42.3335 79.5171 42.4413 79.7249 42.5038C79.9124 42.5536 80.1046 42.5841 80.2984 42.5949C80.4157 42.6054 80.5371 42.6163 80.6535 42.6364C81.4131 42.7913 82.0351 43.3325 82.2916 44.0614C82.399 44.36 82.7291 44.5152 83.0288 44.4082C83.0759 44.3914 83.1205 44.3685 83.1617 44.3402C83.4077 44.1494 83.7319 44.0906 84.0296 44.1828C84.1564 44.253 84.255 44.3645 84.3091 44.4986C84.3747 44.648 84.4836 44.7745 84.6217 44.862C85.0943 45.1047 85.1268 46.1798 84.9571 47.0761C84.7935 47.94 84.4702 48.5649 84.1708 48.5958C83.9403 48.6196 83.9139 48.6359 83.8972 48.6765L83.8823 48.7128L83.9082 48.7468C84.0355 48.7928 84.1713 48.8109 84.3062 48.7998V48.7998Z" fill="#2F2E41"/>
<path d="M74.4591 45.9416L74.446 45.9407C70.8963 45.448 67.2951 45.448 63.7454 45.9407H63.7397C63.3843 45.942 63.0338 45.8578 62.7182 45.6952C61.8174 45.2078 61.4097 44.1375 61.7592 43.1775C62.1428 42.19 62.1585 41.0983 61.8036 40.1003C61.5768 39.4662 61.66 38.763 62.0286 38.1988C62.3718 37.666 62.9478 37.3265 63.5818 37.2834C63.6317 37.2801 63.6817 37.2783 63.7323 37.2783C67.2752 37.8995 70.8998 37.9 74.4428 37.2797H74.4473C75.1555 37.2772 75.822 37.6133 76.2394 38.1833C76.59 38.6837 76.6978 39.3141 76.5331 39.9019C76.2599 40.9613 76.2728 42.1052 76.573 43.3989C76.6819 43.8516 76.6275 44.3279 76.4192 44.7446C76.0453 45.4805 75.287 45.9436 74.4591 45.9416V45.9416Z" fill="#0066FF"/>
<path d="M79.0085 57.3577L81.0218 54.2572C79.6568 52.2691 74.8253 49.5668 74.8253 49.5668L68.5773 42.7587C68.4291 41.8705 67.5862 41.2702 66.6946 41.4178C65.803 41.5655 65.2004 42.4052 65.3486 43.2934C65.4448 43.8698 65.8432 44.3508 66.393 44.5543L72.9471 54.0314L79.0085 57.3577H79.0085Z" fill="#FFB8B8"/>
<path d="M88.5036 61.0775C87.3098 62.8707 84.8829 63.3604 83.0828 62.1712C82.8811 62.038 82.6923 61.8863 82.5187 61.7183L80.8403 60.0935C80.8403 60.0935 73.8048 56.4338 72.7779 54.1891L68.168 47.6753L71.2589 44.8975L76.6315 49.7628C76.6315 49.7628 79.1051 52.6123 80.8697 52.6589C81.9504 52.6874 85.0566 54.1397 87.4156 55.6838C89.2105 56.8708 89.6997 59.2825 88.5081 61.0706L88.5036 61.0775V61.0775Z" fill="#3F3D56"/>
<path d="M41.6368 125.384L41.6237 125.383C38.074 124.89 34.4728 124.89 30.9231 125.383H30.9174C30.562 125.384 30.2116 125.3 29.8959 125.138C28.9951 124.65 28.5874 123.58 28.937 122.62C29.3205 121.632 29.3362 120.541 28.9813 119.543C28.7546 118.909 28.8378 118.205 29.2063 117.641C29.5495 117.108 30.1256 116.769 30.7596 116.726C30.8094 116.722 30.8594 116.721 30.91 116.721C34.4529 117.342 38.0775 117.342 41.6206 116.722H41.625C42.3333 116.72 42.9997 117.056 43.4171 117.626C43.7678 118.126 43.8755 118.756 43.7109 119.344C43.4376 120.404 43.4505 121.548 43.7507 122.841C43.8596 123.294 43.8052 123.77 43.5969 124.187C43.2231 124.923 42.4648 125.386 41.6368 125.384H41.6368Z" fill="#0066FF"/>
<path d="M44.6603 117.474L44.6472 117.473C41.0974 116.98 37.4963 116.98 33.9466 117.473H33.9408C33.5855 117.474 33.235 117.39 32.9193 117.227C32.0185 116.74 31.6109 115.67 31.9604 114.71C32.344 113.722 32.3597 112.631 32.0047 111.632C31.778 110.998 31.8612 110.295 32.2298 109.731C32.573 109.198 33.149 108.859 33.783 108.816C33.8328 108.812 33.8829 108.811 33.9335 108.811C37.4764 109.432 41.1009 109.432 44.644 108.812H44.6485C45.3567 108.809 46.0232 109.145 46.4406 109.716C46.7912 110.216 46.8989 110.846 46.7343 111.434C46.4611 112.494 46.474 113.637 46.7742 114.931C46.8831 115.384 46.8286 115.86 46.6204 116.277C46.2465 117.013 45.4882 117.476 44.6603 117.474H44.6603Z" fill="#0066FF"/>
<path d="M18.1917 119.63L18.1998 119.62C20.5984 116.967 22.6162 113.996 24.1956 110.791L24.1988 110.786C24.3968 110.492 24.6632 110.25 24.9753 110.081C25.8852 109.61 27.0036 109.874 27.6059 110.7C28.212 111.57 29.1109 112.195 30.1395 112.461C30.7938 112.629 31.3318 113.092 31.5944 113.712C31.8451 114.294 31.8046 114.959 31.4852 115.507C31.46 115.55 31.4335 115.592 31.4051 115.634C28.9034 118.209 26.8721 121.199 25.4026 124.47L25.4001 124.474C25.0053 125.06 24.3525 125.421 23.6447 125.446C23.0322 125.455 22.4477 125.191 22.0512 124.726C21.3235 123.907 20.3652 123.276 19.1213 122.799C18.6839 122.635 18.3184 122.324 18.0886 121.918C17.6863 121.198 17.7261 120.312 18.1917 119.63V119.63Z" fill="#0066FF"/>
<path d="M141.776 125.671L0.223927 125.729C0.0996086 125.728 -0.00064719 125.627 3.14612e-06 125.504C0.000645921 125.381 0.100525 125.281 0.223927 125.281L141.776 125.223C141.9 125.223 142.001 125.324 142 125.448C141.999 125.571 141.899 125.67 141.776 125.671Z" fill="#CACACA"/>
<path d="M30.296 10.1528C31.179 10.1528 31.8947 9.42383 31.8947 8.52463C31.8947 7.62543 31.179 6.89648 30.296 6.89648C29.413 6.89648 28.6973 7.62543 28.6973 8.52463C28.6973 9.42383 29.413 10.1528 30.296 10.1528Z" fill="#3F3D56"/>
<path d="M35.8194 10.1528C36.7024 10.1528 37.4182 9.42383 37.4182 8.52463C37.4182 7.62543 36.7024 6.89648 35.8194 6.89648C34.9365 6.89648 34.2207 7.62543 34.2207 8.52463C34.2207 9.42383 34.9365 10.1528 35.8194 10.1528Z" fill="#3F3D56"/>
<path d="M41.3409 10.1528C42.2239 10.1528 42.9397 9.42383 42.9397 8.52463C42.9397 7.62543 42.2239 6.89648 41.3409 6.89648C40.458 6.89648 39.7422 7.62543 39.7422 8.52463C39.7422 9.42383 40.458 10.1528 41.3409 10.1528Z" fill="#3F3D56"/>
<path d="M47.6389 9.81185C47.5898 9.81185 47.5408 9.79291 47.5038 9.7552L46.425 8.65666C46.3531 8.58346 46.3531 8.46649 46.425 8.39329L47.5038 7.29484C47.577 7.22053 47.6968 7.21934 47.7711 7.29189C47.8458 7.36463 47.8471 7.4839 47.774 7.55821L46.8246 8.52497L47.774 9.49183C47.8471 9.56614 47.8458 9.68541 47.7711 9.75815C47.7344 9.79401 47.6866 9.81185 47.6389 9.81185V9.81185Z" fill="#3F3D56"/>
<path d="M49.4527 9.81101C49.405 9.81101 49.3573 9.79317 49.3205 9.75731C49.2459 9.68457 49.2446 9.56539 49.3176 9.49099L50.2669 8.52413L49.3176 7.55737C49.2446 7.48307 49.2459 7.36379 49.3205 7.29105C49.395 7.21822 49.5149 7.2196 49.5879 7.294L50.6665 8.39245C50.7384 8.46565 50.7384 8.58262 50.6665 8.65582L49.5879 9.75436C49.5509 9.79207 49.5018 9.81101 49.4527 9.81101V9.81101Z" fill="#3F3D56"/>
<path d="M105.887 7.08496H103.881C103.652 7.08496 103.467 7.26952 103.467 7.49741V9.4975C103.467 9.72538 103.652 9.90995 103.881 9.90995H105.887C106.115 9.90995 106.303 9.72538 106.303 9.4975V7.49741C106.303 7.26952 106.115 7.08496 105.887 7.08496Z" fill="#3F3D56"/>
<path d="M100.971 7.08496H98.9648C98.736 7.08496 98.5508 7.26952 98.5508 7.49741V9.4975C98.5508 9.72538 98.736 9.90995 98.9648 9.90995H100.971C101.199 9.90995 101.387 9.72538 101.387 9.4975V7.49741C101.387 7.26952 101.199 7.08496 100.971 7.08496Z" fill="#3F3D56"/>
<path d="M110.518 7.17871H108.512C108.283 7.17871 108.098 7.36327 108.098 7.59116V9.59125C108.098 9.81913 108.283 10.0037 108.512 10.0037H110.518C110.746 10.0037 110.933 9.81913 110.933 9.59125V7.59116C110.933 7.36327 110.746 7.17871 110.518 7.17871Z" fill="#3F3D56"/>
<path d="M80.2843 7.94043H64.2509C63.9711 7.94043 63.7461 8.16643 63.7461 8.44328C63.7461 8.72014 63.9711 8.94613 64.2509 8.94613H80.2843C80.5622 8.94613 80.7891 8.72013 80.7891 8.44328C80.7891 8.16644 80.5622 7.94043 80.2843 7.94043V7.94043Z" fill="#3F3D56"/>
</g>
<defs>
<clipPath id="clip0_1103_916">
<rect width="142" height="126" fill="white"/>
</clipPath>
</defs>
</svg>
