<svg viewBox="0 0 209 342" fill="none" xmlns="http://www.w3.org/2000/svg">
<path d="M186.993 265.278C192.881 269.7 201.24 268.511 205.662 262.623C210.084 256.735 208.895 248.377 203.007 243.955C197.119 239.533 188.76 240.721 184.338 246.609C179.916 252.498 181.105 260.856 186.993 265.278ZM5.99321 265.278C11.8814 269.7 20.2395 268.511 24.6616 262.623C29.0836 256.735 27.895 248.377 22.0068 243.955C16.1186 239.533 7.76046 240.721 3.33843 246.609C-1.0836 252.498 0.104987 260.856 5.99321 265.278ZM14.4866 257.116C15.8673 257.116 16.9866 255.997 16.9866 254.616C16.9866 253.235 15.8673 252.116 14.4866 252.116L14.4866 257.116ZM43.6801 252.116C42.2994 252.116 41.1801 253.235 41.1801 254.616C41.1801 255.997 42.2994 257.116 43.6801 257.116L43.6801 252.116ZM44.6532 257.116C46.0339 257.116 47.1532 255.997 47.1532 254.616C47.1532 253.235 46.0339 252.116 44.6532 252.116L44.6532 257.116ZM73.8468 252.116C72.4661 252.116 71.3468 253.235 71.3468 254.616C71.3468 255.997 72.4661 257.116 73.8468 257.116L73.8468 252.116ZM74.8199 257.116C76.2006 257.116 77.3199 255.997 77.3199 254.616C77.3199 253.235 76.2006 252.116 74.8199 252.116L74.8199 257.116ZM104.013 252.116C102.633 252.116 101.513 253.235 101.513 254.616C101.513 255.997 102.633 257.116 104.013 257.116L104.013 252.116ZM104.987 257.116C106.367 257.116 107.487 255.997 107.487 254.616C107.487 253.235 106.367 252.116 104.987 252.116L104.987 257.116ZM134.18 252.116C132.799 252.116 131.68 253.235 131.68 254.616C131.68 255.997 132.799 257.116 134.18 257.116L134.18 252.116ZM135.153 257.116C136.534 257.116 137.653 255.997 137.653 254.616C137.653 253.235 136.534 252.116 135.153 252.116L135.153 257.116ZM164.347 252.116C162.966 252.116 161.847 253.235 161.847 254.616C161.847 255.997 162.966 257.116 164.347 257.116L164.347 252.116ZM165.32 257.116C166.701 257.116 167.82 255.997 167.82 254.616C167.82 253.235 166.701 252.116 165.32 252.116L165.32 257.116ZM194.513 252.116C193.133 252.116 192.013 253.235 192.013 254.616C192.013 255.997 193.133 257.116 194.513 257.116L194.513 252.116ZM14 257.116L14.4866 257.116L14.4866 252.116L14 252.116L14 257.116ZM43.6801 257.116L44.6532 257.116L44.6532 252.116L43.6801 252.116L43.6801 257.116ZM73.8468 257.116L74.8199 257.116L74.8199 252.116L73.8468 252.116L73.8468 257.116ZM104.013 257.116L104.987 257.116L104.987 252.116L104.013 252.116L104.013 257.116ZM134.18 257.116L135.153 257.116L135.153 252.116L134.18 252.116L134.18 257.116ZM164.347 257.116L165.32 257.116L165.32 252.116L164.347 252.116L164.347 257.116ZM194.513 257.116L195 257.116L195 252.116L194.513 252.116L194.513 257.116Z" fill="#0066FF"/>
<path d="M13.6682 268.329C21.0297 268.512 27.1459 262.693 27.3292 255.332C27.5125 247.97 21.6934 241.854 14.3318 241.671C6.97033 241.488 0.854072 247.307 0.670798 254.668C0.487523 262.03 6.30664 268.146 13.6682 268.329ZM19.6682 27.3292C27.0297 27.5125 33.1459 21.6934 33.3292 14.3319C33.5125 6.97035 27.6934 0.854086 20.3318 0.670812C12.9703 0.487537 6.85407 6.30665 6.6708 13.6682C6.48752 21.0297 12.3066 27.1459 19.6682 27.3292ZM16.5113 254.576C16.5457 253.196 15.4546 252.049 14.0743 252.015C12.694 251.981 11.5472 253.072 11.5129 254.452L16.5113 254.576ZM12.2387 225.299C12.2043 226.679 13.2954 227.826 14.6757 227.86C16.056 227.894 17.2028 226.803 17.2371 225.423L12.2387 225.299ZM17.2613 224.451C17.2957 223.071 16.2046 221.924 14.8243 221.89C13.444 221.856 12.2972 222.947 12.2629 224.327L17.2613 224.451ZM12.9887 195.174C12.9543 196.554 14.0454 197.701 15.4257 197.735C16.806 197.769 17.9528 196.678 17.9871 195.298L12.9887 195.174ZM18.0113 194.326C18.0457 192.946 16.9546 191.799 15.5743 191.765C14.194 191.731 13.0472 192.822 13.0129 194.202L18.0113 194.326ZM13.7387 165.049C13.7043 166.429 14.7954 167.576 16.1757 167.61C17.556 167.644 18.7028 166.553 18.7371 165.173L13.7387 165.049ZM18.7613 164.201C18.7957 162.821 17.7046 161.674 16.3243 161.64C14.944 161.606 13.7972 162.697 13.7629 164.077L18.7613 164.201ZM14.4887 134.924C14.4543 136.304 15.5454 137.451 16.9257 137.485C18.306 137.519 19.4528 136.428 19.4871 135.048L14.4887 134.924ZM19.5113 134.076C19.5457 132.696 18.4546 131.549 17.0743 131.515C15.694 131.481 14.5472 132.572 14.5129 133.952L19.5113 134.076ZM15.2387 104.799C15.2043 106.179 16.2954 107.326 17.6757 107.36C19.056 107.394 20.2028 106.303 20.2371 104.923L15.2387 104.799ZM20.2613 103.951C20.2957 102.571 19.2046 101.424 17.8243 101.39C16.444 101.356 15.2972 102.447 15.2629 103.827L20.2613 103.951ZM15.9887 74.6737C15.9543 76.054 17.0454 77.2008 18.4257 77.2351C19.806 77.2695 20.9528 76.1784 20.9871 74.7981L15.9887 74.6737ZM21.0113 73.8263C21.0457 72.446 19.9546 71.2992 18.5743 71.2649C17.194 71.2305 16.0472 72.3216 16.0129 73.7019L21.0113 73.8263ZM16.7387 44.5487C16.7043 45.9289 17.7954 47.0757 19.1757 47.1101C20.556 47.1445 21.7028 46.0534 21.7371 44.6731L16.7387 44.5487ZM21.7613 43.7013C21.7957 42.321 20.7046 41.1742 19.3243 41.1399C17.944 41.1055 16.7972 42.1966 16.7629 43.5769L21.7613 43.7013ZM17.4887 14.4237C17.4543 15.8039 18.5454 16.9507 19.9257 16.9851C21.306 17.0195 22.4528 15.9284 22.4871 14.5481L17.4887 14.4237ZM16.4992 255.062L16.5113 254.576L11.5129 254.452L11.5008 254.938L16.4992 255.062ZM17.2371 225.423L17.2613 224.451L12.2629 224.327L12.2387 225.299L17.2371 225.423ZM17.9871 195.298L18.0113 194.326L13.0129 194.202L12.9887 195.174L17.9871 195.298ZM18.7371 165.173L18.7613 164.201L13.7629 164.077L13.7387 165.049L18.7371 165.173ZM19.4871 135.048L19.5113 134.076L14.5129 133.952L14.4887 134.924L19.4871 135.048ZM20.2371 104.923L20.2613 103.951L15.2629 103.827L15.2387 104.799L20.2371 104.923ZM20.9871 74.7981L21.0113 73.8263L16.0129 73.7019L15.9887 74.6737L20.9871 74.7981ZM21.7371 44.6731L21.7613 43.7013L16.7629 43.5769L16.7387 44.5487L21.7371 44.6731ZM22.4871 14.5481L22.4992 14.0622L17.5008 13.9378L17.4887 14.4237L22.4871 14.5481Z" fill="#0066FF"/>
</svg>
