<svg viewBox="0 0 174 154" fill="none" xmlns="http://www.w3.org/2000/svg">
<path d="M111.746 139.054L111.319 133.091C108.522 131.687 105.427 130.99 102.301 131.06C106.698 134.474 106.346 141.296 109.392 145.965C110.353 147.414 111.626 148.627 113.117 149.514C114.609 150.402 116.28 150.941 118.007 151.092L121.667 153.206C122.086 150.428 121.899 147.591 121.121 144.891C120.343 142.192 118.991 139.694 117.159 137.57C116.119 136.388 114.936 135.343 113.636 134.459C112.836 136.765 111.746 139.054 111.746 139.054Z" fill="#F2F2F2"/>
<path d="M89.9442 154H173.731C173.802 154 173.871 153.972 173.921 153.921C173.971 153.87 174 153.802 174 153.73C174 153.659 173.971 153.59 173.921 153.54C173.871 153.489 173.802 153.461 173.731 153.461H89.9442C89.873 153.461 89.8047 153.489 89.7544 153.54C89.7041 153.59 89.6758 153.659 89.6758 153.73C89.6758 153.802 89.7041 153.87 89.7544 153.921C89.8047 153.972 89.873 154 89.9442 154V154V154Z" fill="#CCCCCC"/>
<path d="M36.5989 89.6539V89.7693H36.6789C36.6499 89.7325 36.6232 89.694 36.5989 89.6539ZM37.2151 40.7352C31.6223 48.039 28.5949 56.9967 28.6055 66.2101C28.6068 67.6132 28.6752 68.9964 28.8108 70.3598C28.8318 70.5941 28.8561 70.8283 28.8875 71.059C29.6646 77.8393 32.0905 84.3236 35.9513 89.9406C36.1009 90.1608 36.2541 90.3776 36.4074 90.5943C38.0695 92.9343 39.967 95.0962 42.0698 97.0461C58.9987 112.743 85.3944 111.687 101.026 94.6881C101.267 94.4329 101.496 94.1742 101.723 93.9155C108.121 86.6391 111.802 77.3558 112.135 67.6545C112.469 57.9533 109.434 48.4373 103.55 40.7352C103.373 40.501 103.192 40.2667 103.004 40.036C102.592 39.5151 102.165 39.0047 101.723 38.5048C101.496 38.2461 101.267 37.9874 101.026 37.7322C97.1234 33.4814 92.3852 30.0895 87.1108 27.7705C81.8364 25.4514 76.1405 24.2557 70.3827 24.2588C69.9824 24.2588 69.5855 24.2658 69.1886 24.2763C68.9239 24.2833 68.6594 24.2937 68.3949 24.3077C62.4684 24.5902 56.6703 26.1394 51.3876 28.8517C46.105 31.564 41.4596 35.377 37.7616 40.036C37.5736 40.2667 37.3927 40.501 37.2151 40.7352L37.2151 40.7352ZM36.6789 89.7693C36.6499 89.7325 36.6232 89.694 36.5989 89.6539V89.7693H36.6789Z" fill="white"/>
<path d="M36.3063 89.224L36.4246 88.9828L45.2883 71.0591V71.0556L45.6331 70.3599V70.3564L60.2759 40.7353V40.7318L60.6206 40.0361L60.624 40.0326L68.0396 25.0245L68.3947 24.3078C68.6593 24.2939 68.9239 24.2834 69.1884 24.2764L68.8368 24.9895L61.4005 40.0326V40.0361L61.0558 40.7318V40.7353L46.0298 71.129L46.0264 71.1325L37.1627 89.0702L36.8146 89.7694L36.7588 89.8847L36.4073 90.5944C36.2539 90.3777 36.1008 90.1609 35.9512 89.9407L36.3063 89.224Z" fill="#3F3D56"/>
<path d="M45.8801 70.3604V71.0595H28.8872C28.8558 70.8288 28.8315 70.5946 28.8105 70.3604H45.8801Z" fill="#3F3D56"/>
<path d="M72.2871 75.8144V75.1152H89.28C89.3115 75.346 89.3358 75.5802 89.3567 75.8144H72.2871Z" fill="#3F3D56"/>
<path d="M86.502 73.3779H87.1982V90.4417C86.9685 90.4732 86.7352 90.4977 86.502 90.5186V73.3779Z" fill="#3F3D56"/>
<path d="M103.55 40.7354C103.373 40.5012 103.192 40.267 103.004 40.0363H101.722V38.505C101.496 38.2463 101.266 37.9876 101.026 37.7324V40.0363H37.7614C37.5733 40.267 37.3925 40.5012 37.2148 40.7354H101.026V94.6883C101.266 94.4331 101.496 94.1744 101.722 93.9157V40.7354H103.55Z" fill="#3F3D56"/>
<path d="M101.374 89.0703H36.5977V89.7695H101.374V89.0703Z" fill="#3F3D56"/>
<path d="M36.5989 89.6539V89.7693H36.6789C36.6499 89.7325 36.6232 89.694 36.5989 89.6539ZM37.2151 40.7352C31.6223 48.039 28.5949 56.9967 28.6055 66.2101C28.6068 67.6132 28.6752 68.9964 28.8108 70.3598C28.8318 70.5941 28.8561 70.8283 28.8875 71.059C29.6646 77.8393 32.0905 84.3236 35.9513 89.9406C36.1009 90.1608 36.2541 90.3776 36.4074 90.5943C38.0695 92.9343 39.967 95.0962 42.0698 97.0461C58.9987 112.743 85.3944 111.687 101.026 94.6881C101.267 94.4329 101.496 94.1742 101.723 93.9155C108.121 86.6391 111.802 77.3558 112.135 67.6545C112.469 57.9533 109.434 48.4373 103.55 40.7352C103.373 40.501 103.192 40.2667 103.004 40.036C102.592 39.5151 102.165 39.0047 101.723 38.5048C101.496 38.2461 101.267 37.9874 101.026 37.7322C97.1234 33.4814 92.3852 30.0895 87.1108 27.7705C81.8364 25.4514 76.1405 24.2557 70.3827 24.2588C69.9824 24.2588 69.5855 24.2658 69.1886 24.2763C68.9239 24.2833 68.6594 24.2937 68.3949 24.3077C62.4684 24.5902 56.6703 26.1394 51.3876 28.8517C46.105 31.564 41.4596 35.377 37.7616 40.036C37.5736 40.2667 37.3927 40.501 37.2151 40.7352L37.2151 40.7352ZM29.5872 71.059C29.5559 70.8283 29.5316 70.594 29.5071 70.3598C28.4459 59.7416 31.5231 49.1235 38.0924 40.7352C38.2769 40.5009 38.4615 40.2667 38.6529 40.036C42.2509 35.629 46.7204 32.0194 51.7786 29.4355C56.8368 26.8517 62.3739 25.3496 68.0398 25.0244C68.3042 25.0104 68.5689 24.9964 68.837 24.9894C69.3487 24.9685 69.8639 24.958 70.3827 24.958C76.1722 24.9545 81.8967 26.1835 87.1788 28.5637C92.4608 30.944 97.1804 34.4215 101.026 38.767C101.267 39.0327 101.5 39.2983 101.723 39.571C101.858 39.7248 101.987 39.8787 102.113 40.036C102.304 40.2667 102.488 40.5009 102.673 40.7352C108.527 48.1981 111.63 57.4642 111.457 66.9625C111.284 76.4607 107.845 85.6065 101.723 92.8492C101.5 93.1219 101.267 93.3876 101.026 93.6533C98.9066 96.0448 96.5165 98.18 93.9044 100.016C75.3381 113.064 49.7532 108.528 36.759 89.8847C36.7311 89.8462 36.7032 89.8078 36.6789 89.7693C36.6499 89.7325 36.6232 89.694 36.5988 89.6539C36.4979 89.5106 36.4004 89.3673 36.3065 89.2239C32.6495 83.7971 30.345 77.5672 29.5872 71.059L29.5872 71.059ZM36.6789 89.7693C36.6499 89.7325 36.6232 89.694 36.5988 89.6539V89.7693H36.6789Z" fill="#CCCCCC"/>
<path d="M118.497 111.27H76.8168C76.3071 111.269 75.8185 111.066 75.4582 110.704C75.0978 110.342 74.8951 109.851 74.8945 109.339V88.9459C74.8951 88.4341 75.0978 87.9435 75.4582 87.5816C75.8185 87.2198 76.3071 87.0162 76.8168 87.0156H118.497C119.007 87.0162 119.495 87.2198 119.856 87.5816C120.216 87.9435 120.419 88.4341 120.419 88.9459V109.339C120.419 109.851 120.216 110.342 119.856 110.704C119.495 111.066 119.007 111.269 118.497 111.27V111.27Z" fill="#CACACA"/>
<path d="M100.137 109.629C91.009 109.629 81.4908 109.541 77.9394 109.484C77.4721 109.475 77.0272 109.282 76.6995 108.947C76.3718 108.613 76.1874 108.163 76.1855 107.693V88.9474C76.1857 88.7793 76.2522 88.6182 76.3704 88.4992C76.4886 88.3802 76.6489 88.3131 76.8162 88.3125H118.495C118.663 88.3127 118.823 88.3794 118.942 88.4981C119.06 88.6167 119.127 88.7777 119.127 88.9457V101.665C119.12 103.741 118.302 105.731 116.849 107.209C115.397 108.686 113.426 109.534 111.358 109.569C108.049 109.612 104.129 109.629 100.137 109.629Z" fill="#E4E4E4"/>
<path d="M114.195 100.031H80.2813C80.0614 100.031 79.8469 99.9626 79.6672 99.8354C79.4875 99.7081 79.3513 99.5283 79.2772 99.3204L75.4388 88.5068C75.3815 88.3454 75.3637 88.1725 75.3867 88.0028C75.4098 87.833 75.4731 87.6712 75.5714 87.5311C75.6696 87.391 75.7999 87.2767 75.9513 87.1976C76.1027 87.1186 76.2708 87.0772 76.4414 87.077L118.834 87.0176H118.835C119.012 87.0176 119.185 87.0615 119.341 87.1455C119.496 87.2295 119.628 87.3509 119.725 87.4987C119.822 87.6466 119.881 87.8164 119.897 87.9928C119.913 88.1693 119.884 88.3468 119.815 88.5096L119.757 88.4847L119.815 88.5096L115.174 99.3826C115.092 99.5753 114.956 99.7395 114.782 99.8548C114.607 99.9702 114.403 100.032 114.195 100.031V100.031Z" fill="#CACACA"/>
<path d="M90.1112 107.526H78.4169C78.1291 107.525 77.8531 107.41 77.6497 107.206C77.4463 107.001 77.332 106.724 77.332 106.435C77.332 106.146 77.4463 105.868 77.6497 105.664C77.8531 105.459 78.1291 105.344 78.4169 105.344H90.1112C90.3991 105.344 90.675 105.459 90.8785 105.664C91.0819 105.868 91.1961 106.146 91.1961 106.435C91.1961 106.724 91.0819 107.001 90.8785 107.206C90.675 107.41 90.3991 107.525 90.1112 107.526V107.526Z" fill="#CACACA"/>
<path d="M97.5951 102.698C99.0617 102.698 100.251 101.504 100.251 100.031C100.251 98.5582 99.0617 97.3643 97.5951 97.3643C96.1284 97.3643 94.9395 98.5582 94.9395 100.031C94.9395 101.504 96.1284 102.698 97.5951 102.698Z" fill="#3F3D56"/>
<path d="M13.424 5.51363C19.9491 0.899252 28.0324 -0.923233 35.8957 0.447099C43.759 1.81743 50.7581 6.26833 55.3533 12.8207C64.9224 26.4652 74.5242 62.2445 67.7463 82.9717C47.5294 61.528 16.4702 59.2998 6.14725 47.6177C-4.88318 35.135 -0.16392 15.1226 13.424 5.51363Z" fill="#0066FF"/>
<path d="M31.1596 36.4108C36.5797 36.4108 40.9735 31.9986 40.9735 26.556C40.9735 21.1133 36.5797 16.7012 31.1596 16.7012C25.7395 16.7012 21.3457 21.1133 21.3457 26.556C21.3457 31.9986 25.7395 36.4108 31.1596 36.4108Z" fill="white"/>
<path d="M76.0431 93.7043C79.5932 93.7043 82.471 90.8144 82.471 87.2496C82.471 83.6848 79.5932 80.7949 76.0431 80.7949C72.4931 80.7949 69.6152 83.6848 69.6152 87.2496C69.6152 90.8144 72.4931 93.7043 76.0431 93.7043Z" fill="#0066FF"/>
<path opacity="0.2" d="M20.6611 24.2821C20.0113 25.3996 19.587 26.6348 19.4126 27.917C19.2381 29.1992 19.3169 30.5034 19.6444 31.755C19.9718 33.0067 20.5416 34.1813 21.3212 35.2118C22.1007 36.2424 23.0747 37.1086 24.1877 37.7612C25.3006 38.4137 26.5306 38.8397 27.8075 39.0149C29.0844 39.1901 30.3832 39.111 31.6296 38.7821C32.8761 38.4533 34.0458 37.8812 35.0721 37.0984C36.0984 36.3156 36.961 35.3375 37.6108 34.2199C35.8591 35.7631 33.6177 36.6298 31.2877 36.6651C28.9577 36.7004 26.6912 35.9018 24.894 34.4124C23.0968 32.923 21.886 30.8399 21.4785 28.536C21.071 26.232 21.4933 23.8577 22.6699 21.8379C21.8734 22.5385 21.195 23.3639 20.6611 24.2821V24.2821Z" fill="#231F20"/>
<path opacity="0.2" d="M6.1291 47.6648C16.4521 59.3469 47.5113 61.5751 67.7282 83.0188C68.3592 81.0576 68.8449 79.0523 69.1813 77.0193C48.9745 57.525 19.6443 55.0614 9.67047 43.7745C0.743709 33.6724 2.1333 18.6396 10.1896 8.17969C-0.859496 18.4645 -3.97925 36.2257 6.1291 47.6648Z" fill="#231F20"/>
<path d="M134.443 88.9398L130.275 87.665C128.461 89.8616 126.957 96.2243 126.957 96.2243L121.253 105.532C120.948 105.677 120.686 105.901 120.494 106.18C120.302 106.46 120.187 106.785 120.16 107.123C120.134 107.461 120.196 107.801 120.341 108.107C120.486 108.413 120.709 108.676 120.988 108.868C121.266 109.06 121.59 109.176 121.927 109.202C122.264 109.229 122.602 109.166 122.907 109.02C123.212 108.873 123.473 108.649 123.664 108.369C123.855 108.089 123.969 107.764 123.995 107.426L132.628 96.9015L134.443 88.9398Z" fill="#FFB6B6"/>
<path d="M134.363 89.9553L135.133 83.6201L133.407 80.7248C133.066 80.1577 132.574 79.6976 131.986 79.3966C131.398 79.0956 130.738 78.9656 130.081 79.0214C129.19 79.1031 128.364 79.5213 127.768 80.1915C127.173 80.8618 126.853 81.734 126.874 82.6318C126.939 85.3547 127.366 88.798 129.033 89.739L129.05 89.7485L134.363 89.9553Z" fill="#0066FF"/>
<path d="M146.137 147.2L143.637 148.411L137.795 139.307L141.484 137.52L146.137 147.2Z" fill="#FFB6B6"/>
<path d="M147.482 149.775L139.797 153.501L139.75 153.403C139.367 152.606 139.315 151.69 139.605 150.854C139.895 150.019 140.504 149.334 141.297 148.949L141.298 148.949L142.187 147.199L145.321 146.999L145.992 146.674L147.482 149.775Z" fill="#2F2E41"/>
<path d="M127.533 150.594L124.758 150.594L123.438 139.845L127.533 139.845L127.533 150.594Z" fill="#FFB6B6"/>
<path d="M127.63 153.501L119.096 153.5V153.392C119.096 152.507 119.446 151.659 120.069 151.034C120.692 150.408 121.536 150.057 122.417 150.057H122.418L123.976 148.869L126.885 150.057L127.63 150.057L127.63 153.501Z" fill="#2F2E41"/>
<path d="M124.782 100.742L121.602 122.763L122.468 125.66L121.332 127.712L123 143.158L122.323 144.655L124.214 145.826H128.063L128.267 129.51L129.218 127.115V125.795L131.153 115.846L131.6 131.334L132.218 132.53C134.519 137.774 137.62 139.491 139.812 143.411L143.661 141.317L143.58 139.756C144.353 139.363 142.419 138.214 142.233 137.364L141.896 135.842L139.651 131.171L139.565 129.527L140.18 118.341L139.891 103.277L134.842 99.4004L124.782 100.742Z" fill="#2F2E41"/>
<path d="M129.78 74.0318C132.541 74.0318 134.78 71.7837 134.78 69.0105C134.78 66.2374 132.541 63.9893 129.78 63.9893C127.018 63.9893 124.779 66.2374 124.779 69.0105C124.779 71.7837 127.018 74.0318 129.78 74.0318Z" fill="#FFB6B6"/>
<path d="M122.391 110.242L122.318 110.216L123.286 107.058C123.159 106.651 123.135 106.219 123.216 105.8C123.296 105.381 123.479 104.989 123.748 104.659C123.592 104.387 122.946 103.102 123.997 102.011C123.935 101.692 123.618 99.8083 124.721 98.8875C124.721 98.8875 126.861 82.6007 128.062 78.2989C128.096 77.9841 127.815 75.4144 129.43 75.3137C130.281 75.2606 131.559 75.1794 133.476 75.0552C133.724 75.0374 133.869 75.4574 134.089 76.1411C134.238 76.6036 133.472 77.2357 133.657 77.2252L133.67 77.2243L133.683 77.2277C135.472 77.7093 137.041 78.7947 138.127 80.3013C139.212 81.8079 139.748 83.644 139.644 85.5007L139.074 95.2322C139.161 95.6236 140.976 106.721 140.502 107.912C140.232 108.588 140.691 109.009 141.027 109.316C141.199 109.475 141.324 109.589 141.307 109.714C141.3 109.748 141.284 109.781 141.261 109.807C141.239 109.834 141.21 109.855 141.177 109.867C140.874 110.02 141.042 111.064 141.219 111.686L141.237 111.75L141.178 111.78C141.11 111.815 135.684 109.316 129.092 109.315C126.607 109.315 125.171 111.216 122.391 110.242Z" fill="#0066FF"/>
<path d="M133.742 72.098C133.69 72.0712 133.644 72.0337 133.607 71.988C133.571 71.9422 133.544 71.8892 133.529 71.8325L133.458 71.541L133.677 71.7703C133.794 71.6728 133.884 71.5461 133.937 71.4027C133.99 71.2594 134.004 71.1046 133.978 70.9539C133.953 70.8033 133.888 70.6621 133.791 70.5446C133.693 70.4271 133.567 70.3375 133.424 70.2848C133.327 70.2525 133.228 70.2284 133.128 70.2127C133.023 70.1958 132.919 70.1707 132.818 70.1376C132.582 70.0349 132.378 69.8691 132.228 69.6582C132.079 69.4473 131.99 69.1994 131.971 68.9413C131.938 68.4862 131.988 68.029 132.119 67.592C129.912 67.9323 127.663 67.8644 125.48 67.3915C125.144 67.3203 124.822 67.1932 124.528 67.0153C123.989 66.6944 123.54 66.2411 123.224 65.6981C123.182 65.6248 123.165 65.5401 123.174 65.4562C123.184 65.3724 123.22 65.2938 123.277 65.232C123.317 65.1889 123.365 65.1544 123.419 65.1307C123.473 65.107 123.53 65.0946 123.589 65.0943L123.509 64.8771C123.484 64.8093 123.477 64.736 123.49 64.6648C123.502 64.5936 123.533 64.5269 123.58 64.4716C123.626 64.4164 123.686 64.3744 123.754 64.3501C123.822 64.3258 123.895 64.32 123.966 64.3332L124.249 64.3864L124.222 64.1976C124.212 64.1272 124.22 64.0554 124.246 63.9892C124.272 63.9231 124.314 63.8648 124.37 63.8202C124.425 63.7757 124.491 63.7463 124.56 63.7351C124.63 63.7238 124.702 63.7311 124.768 63.7562C124.829 63.7791 124.894 63.7885 124.959 63.7838C125.023 63.7791 125.086 63.7604 125.143 63.7289C125.2 63.6975 125.249 63.654 125.288 63.6016C125.326 63.5491 125.353 63.4889 125.366 63.4251L125.463 62.9505L125.473 62.9253C125.952 62.1244 126.872 61.5421 127.997 61.3278C129 61.1369 130.024 61.2333 131.015 61.3265C131.436 61.3351 131.848 61.4398 132.222 61.6327C132.391 61.7307 132.53 61.874 132.623 62.0466C132.716 62.2193 132.759 62.4144 132.748 62.6103C133.724 62.3091 134.771 62.9092 135.288 63.6654C135.904 64.5647 136.003 65.693 136.021 66.5754C136.064 68.6612 135.636 70.3678 134.749 71.6478C134.622 71.8651 134.43 72.0365 134.201 72.1376C134.142 72.1573 134.081 72.1673 134.019 72.167C133.922 72.1674 133.827 72.1437 133.742 72.098V72.098Z" fill="#2F2E41"/>
<path d="M133.923 91.8687L130.252 89.5117C127.915 91.135 124.756 96.8539 124.756 96.8539L116.762 104.27C116.429 104.327 116.117 104.472 115.857 104.689C115.598 104.906 115.399 105.188 115.283 105.506C115.166 105.825 115.135 106.168 115.192 106.503C115.25 106.837 115.394 107.15 115.61 107.411C115.827 107.671 116.108 107.87 116.425 107.987C116.742 108.104 117.084 108.135 117.417 108.077C117.75 108.018 118.062 107.873 118.321 107.656C118.58 107.438 118.778 107.156 118.894 106.837L130.035 99.0431L133.923 91.8687Z" fill="#FFB6B6"/>
<path d="M133.572 92.8255L136.017 86.9341L135.133 83.6784C134.957 83.0399 134.606 82.4635 134.121 82.0143C133.636 81.5652 133.036 81.2613 132.388 81.1368V81.1368C131.508 80.9741 130.6 81.1527 129.847 81.6367C129.093 82.1207 128.551 82.874 128.33 83.7441C127.66 86.3835 127.146 89.8147 128.498 91.1726L128.512 91.1864L133.572 92.8255Z" fill="#0066FF"/>
</svg>
