<svg viewBox="0 0 40 40" fill="none" xmlns="http://www.w3.org/2000/svg">
<path fill-rule="evenodd" clip-rule="evenodd" d="M4.50556 4.50484C3.33398 5.67641 3.33398 7.56203 3.33398 11.3333V28.6666C3.33398 32.4378 3.33398 34.3235 4.50556 35.495C5.67713 36.6666 7.56275 36.6666 11.334 36.6666H28.6673C32.4386 36.6666 34.3242 36.6666 35.4957 35.495C36.6673 34.3235 36.6673 32.4378 36.6673 28.6666V11.3333C36.6673 7.96685 36.6673 6.10296 35.834 4.90826V28.3333C35.0045 28.3333 34.5898 28.3333 34.1968 28.2537C33.6912 28.1512 33.2101 27.952 32.7802 27.6669C32.446 27.4452 32.1527 27.152 31.5662 26.5655L29.4957 24.495C28.1624 23.1617 27.4957 22.495 26.6673 22.495C25.8389 22.495 25.1722 23.1617 23.8389 24.495L22.0895 26.2444C21.1431 27.1908 20.6699 27.664 20.1489 27.5637C19.6278 27.4634 19.3642 26.8483 18.837 25.618L17.328 22.097C16.2735 19.6366 15.7463 18.4064 14.7042 18.2057C13.6622 18.0051 12.7158 18.9515 10.823 20.8443L5.83398 25.8333V3.71875C5.29953 3.89164 4.86832 4.14208 4.50556 4.50484Z" fill="white"/>
<path d="M11.334 4.33301H28.6673C30.5812 4.33301 31.916 4.33513 32.9232 4.47054C33.9015 4.60208 34.4196 4.84267 34.7886 5.21169C35.1577 5.5807 35.3983 6.0988 35.5298 7.07717C35.6652 8.0843 35.6673 9.41912 35.6673 11.333V28.6663C35.6673 30.5802 35.6652 31.915 35.5298 32.9222C35.3983 33.9005 35.1577 34.4186 34.7886 34.7877C34.4196 35.1567 33.9015 35.3973 32.9232 35.5288C31.916 35.6642 30.5812 35.6663 28.6673 35.6663H11.334C9.4201 35.6663 8.08528 35.6642 7.07814 35.5288C6.09978 35.3973 5.58168 35.1567 5.21266 34.7877C4.84365 34.4186 4.60305 33.9005 4.47151 32.9222C4.33611 31.915 4.33398 30.5802 4.33398 28.6663V11.333C4.33398 9.41912 4.33611 8.0843 4.47151 7.07717C4.60305 6.0988 4.84365 5.5807 5.21266 5.21169C5.58168 4.84267 6.09978 4.60208 7.07814 4.47054C8.08528 4.33513 9.4201 4.33301 11.334 4.33301Z" stroke="white" stroke-width="2"/>
<circle cx="24.9993" cy="15.0003" r="3.33333" fill="white"/>
</svg>
