<svg viewBox="0 0 40 40" fill="none" xmlns="http://www.w3.org/2000/svg">
<path fill-rule="evenodd" clip-rule="evenodd" d="M5.01733 12.333C5.1763 12.3356 5.33695 12.3762 5.48564 12.4589L20 20.5224L34.5144 12.4589C34.6631 12.3762 34.8237 12.3356 34.9827 12.333C34.9359 10.7795 34.7626 9.85298 34.1213 9.21169C33.2426 8.33301 31.8284 8.33301 29 8.33301H11C8.17157 8.33301 6.75736 8.33301 5.87868 9.21169C5.23738 9.85298 5.06413 10.7795 5.01733 12.333ZM35 14.477L20.9713 22.2707C20.3672 22.6063 19.6328 22.6063 19.0287 22.2707L5 14.477V25.6663C5 28.4948 5 29.909 5.87868 30.7877C6.75736 31.6663 8.17157 31.6663 11 31.6663H29C31.8284 31.6663 33.2426 31.6663 34.1213 30.7877C35 29.909 35 28.4948 35 25.6663V14.477Z" fill="white"/>
</svg>
