<svg viewBox="0 0 40 40" fill="none" xmlns="http://www.w3.org/2000/svg">
<path fill-rule="evenodd" clip-rule="evenodd" d="M20.666 3.33301V12.9997L20.666 13.0541C20.6659 13.4782 20.6658 13.8903 20.7115 14.2302C20.7631 14.6134 20.8886 15.0507 21.2518 15.4139C21.615 15.7771 22.0523 15.9026 22.4355 15.9541C22.7754 15.9998 23.1875 15.9998 23.6116 15.9997L23.666 15.9997H33.3327V26.6663C33.3327 31.3804 33.3327 33.7374 31.8682 35.2019C30.4037 36.6663 28.0467 36.6663 23.3327 36.6663H16.666C11.952 36.6663 9.59495 36.6663 8.13048 35.2019C6.66602 33.7374 6.66602 31.3804 6.66602 26.6663V13.333C6.66602 8.61896 6.66602 6.26194 8.13048 4.79747C9.59495 3.33301 11.952 3.33301 16.666 3.33301H20.666ZM22.666 3.33335V12.9997C22.666 13.4993 22.6681 13.7735 22.6937 13.9637L22.6947 13.971L22.702 13.972C22.8922 13.9976 23.1663 13.9997 23.666 13.9997H33.3323C33.3296 12.9153 33.3046 12.3162 33.0789 11.7714C32.8252 11.1589 32.3435 10.6772 31.3801 9.71374L31.3801 9.71372L26.952 5.28563C25.9885 4.32219 25.5068 3.84048 24.8942 3.58674C24.3495 3.36108 23.7503 3.33611 22.666 3.33335ZM13.9993 21.6663C13.9993 21.1141 14.4471 20.6663 14.9993 20.6663H24.9993C25.5516 20.6663 25.9993 21.1141 25.9993 21.6663C25.9993 22.2186 25.5516 22.6663 24.9993 22.6663H14.9993C14.4471 22.6663 13.9993 22.2186 13.9993 21.6663ZM14.9993 27.333C14.4471 27.333 13.9993 27.7807 13.9993 28.333C13.9993 28.8853 14.4471 29.333 14.9993 29.333H21.666C22.2183 29.333 22.666 28.8853 22.666 28.333C22.666 27.7807 22.2183 27.333 21.666 27.333H14.9993Z" fill="white"/>
</svg>
