<svg viewBox="0 0 18 18" xmlns="http://www.w3.org/2000/svg">
<path fill-rule="evenodd" clip-rule="evenodd" d="M9 18C13.9706 18 18 13.9706 18 9C18 4.02944 13.9706 0 9 0C4.02944 0 0 4.02944 0 9C0 13.9706 4.02944 18 9 18ZM10.2929 11.7071C10.6834 12.0976 11.3166 12.0976 11.7071 11.7071C12.0976 11.3166 12.0976 10.6834 11.7071 10.2929L10.4142 9L11.7071 7.70711C12.0976 7.31658 12.0976 6.68342 11.7071 6.29289C11.3166 5.90237 10.6834 5.90237 10.2929 6.29289L9 7.58579L7.70711 6.29289C7.31658 5.90237 6.68342 5.90237 6.29289 6.29289C5.90237 6.68342 5.90237 7.31658 6.29289 7.70711L7.58579 9L6.29289 10.2929C5.90237 10.6834 5.90237 11.3166 6.29289 11.7071C6.68342 12.0976 7.31658 12.0976 7.70711 11.7071L9 10.4142L10.2929 11.7071ZM11.6788 2.53284C10.1826 1.91309 8.51776 1.83131 6.96801 2.30142C5.41826 2.77153 4.07945 3.76445 3.17971 5.11101C2.27997 6.45756 1.87497 8.07443 2.03371 9.68612C2.19244 11.2978 2.9051 12.8046 4.05025 13.9497C4.44077 14.3403 5.07394 14.3403 5.46446 13.9497C5.85499 13.5592 5.85499 12.9261 5.46447 12.5355C4.6465 11.7176 4.13746 10.6413 4.02408 9.49008C3.91069 8.33888 4.19998 7.18397 4.84265 6.22215C5.48532 5.26032 6.44161 4.55109 7.54858 4.2153C8.65554 3.8795 9.8447 3.93792 10.9134 4.3806C11.9821 4.82328 12.8643 5.62283 13.4096 6.64302C13.9549 7.6632 14.1296 8.8409 13.9039 9.97545C13.6783 11.11 13.0662 12.1312 12.172 12.8651C11.2778 13.5989 10.1568 14 9 14C8.44771 14 8 14.4477 8 15C8 15.5523 8.44771 16 9 16C10.6195 16 12.1889 15.4385 13.4408 14.4111C14.6926 13.3837 15.5496 11.954 15.8655 10.3656C16.1814 8.77726 15.9369 7.12848 15.1734 5.70022C14.41 4.27196 13.175 3.15259 11.6788 2.53284Z" fill="white"/>
</svg>
